<svg width="67" height="72" viewBox="0 0 67 72" fill="none" xmlns="http://www.w3.org/2000/svg">
<path d="M11.0833 22.4416C17.2045 22.4416 22.1666 17.4179 22.1666 11.2208C22.1666 5.02372 17.2045 0 11.0833 0C4.96217 0 0 5.02372 0 11.2208C0 17.4179 4.96217 22.4416 11.0833 22.4416Z" transform="translate(0 13.0908)" fill="#146DE1"/>
<path d="M11.0833 22.4416C17.2045 22.4416 22.1666 17.4179 22.1666 11.2208C22.1666 5.02372 17.2045 0 11.0833 0C4.96217 0 0 5.02372 0 11.2208C0 17.4179 4.96217 22.4416 11.0833 22.4416Z" transform="translate(0 37.1687)" fill="#146DE1"/>
<path d="M11.0833 22.4416C17.2045 22.4416 22.1666 17.4179 22.1666 11.2208C22.1666 5.02372 17.2045 0 11.0833 0C4.96217 0 0 5.02372 0 11.2208C0 17.4179 4.96217 22.4416 11.0833 22.4416Z" transform="translate(44.3334 37.1687)" fill="#388E3C"/>
<path d="M11.0833 22.4416C17.2045 22.4416 22.1666 17.4179 22.1666 11.2208C22.1666 5.02372 17.2045 0 11.0833 0C4.96217 0 0 5.02372 0 11.2208C0 17.4179 4.96217 22.4416 11.0833 22.4416Z" transform="translate(44.3334 13.0908)" fill="#146DE1"/>
<path d="M11.0833 22.4416C17.2045 22.4416 22.1666 17.4179 22.1666 11.2208C22.1666 5.02372 17.2045 0 11.0833 0C4.96217 0 0 5.02372 0 11.2208C0 17.4179 4.96217 22.4416 11.0833 22.4416Z" transform="translate(22.1666 49.5583)" fill="#388E3C"/>
<path d="M11.0833 22.4416C17.2045 22.4416 22.1666 17.4179 22.1666 11.2208C22.1666 5.02372 17.2045 0 11.0833 0C4.96217 0 0 5.02372 0 11.2208C0 17.4179 4.96217 22.4416 11.0833 22.4416Z" transform="translate(22.1666)" fill="#146DE1"/>
<path d="M11.0833 22.4416C17.2045 22.4416 22.1666 17.4179 22.1666 11.2208C22.1666 5.02372 17.2045 0 11.0833 0C4.96217 0 0 5.02372 0 11.2208C0 17.4179 4.96217 22.4416 11.0833 22.4416Z" transform="translate(22.1666 24.7793)" fill="#388E3C"/>
</svg>
