<?xml version="1.0" standalone="no"?>
<!DOCTYPE svg PUBLIC "-//W3C//DTD SVG 20010904//EN"
 "http://www.w3.org/TR/2001/REC-SVG-20010904/DTD/svg10.dtd">
<svg version="1.0" xmlns="http://www.w3.org/2000/svg"
 width="128.000000pt" height="128.000000pt" viewBox="0 0 128.000000 128.000000"
 preserveAspectRatio="xMidYMid meet">
<metadata>
Created by potrace 1.11, written by Peter Selinger 2001-2013
</metadata>
<g transform="translate(0.000000,128.000000) scale(0.100000,-0.100000)"
fill="#000000" stroke="none">
<path d="M554 1261 c-22 -10 -55 -37 -73 -60 -28 -35 -34 -53 -38 -104 -4 -52
-1 -69 19 -107 50 -93 161 -133 253 -91 190 87 142 367 -64 377 -38 2 -70 -3
-97 -15z"/>
<path d="M164 1030 c-156 -71 -164 -281 -14 -358 94 -48 219 -9 265 83 24 49
25 137 1 183 -47 91 -163 133 -252 92z"/>
<path d="M977 1039 c-113 -32 -172 -179 -114 -282 36 -66 87 -100 155 -105 96
-6 175 45 205 132 22 63 9 137 -33 187 -50 61 -138 90 -213 68z"/>
<path d="M577 830 c-149 -45 -184 -257 -57 -349 151 -109 359 34 309 213 -30
104 -147 167 -252 136z"/>
<path d="M172 608 c-19 -6 -51 -29 -73 -50 -115 -114 -48 -312 113 -334 88
-12 164 30 205 113 28 58 28 116 -1 171 -45 87 -153 131 -244 100z"/>
<path d="M960 604 c-121 -51 -161 -208 -78 -309 79 -95 208 -99 295 -10 90 94
67 242 -47 309 -41 24 -124 29 -170 10z"/>
<path d="M583 391 c-113 -29 -174 -166 -124 -276 82 -182 360 -132 375 68 10
138 -116 242 -251 208z"/>
</g>
</svg>
