<svg width="235" height="359" viewBox="0 0 235 359" fill="none" xmlns="http://www.w3.org/2000/svg">
<path d="M234.487 120.335C234.487 186.797 178.932 240.67 119.78 240.67C60.6288 240.67 -3.11773e-06 186.797 -3.11773e-06 120.335C-3.11773e-06 53.8737 60.6288 0 119.78 0C178.932 0 234.487 53.8779 234.487 120.335Z" fill="url(#paint0_linear)"/>
<path d="M223.505 114.703C223.505 178.05 170.551 229.405 114.166 229.405C57.781 229.405 -5.71584e-06 178.054 -5.71584e-06 114.703C-5.71584e-06 51.351 57.7853 7.14033e-07 114.17 7.14033e-07C170.555 7.14033e-07 223.505 51.3723 223.505 114.703Z" transform="translate(5.49121 5.63239)" fill="#7B6DB0"/>
<path d="M16.1075 7.23194C16.1075 3.22885 12.5021 7.27016e-06 8.05375 7.27016e-06C3.60546 7.27016e-06 4.15698e-06 3.24587 4.15698e-06 7.23194C4.15698e-06 10.6054 2.55405 13.4344 6.04032 14.2427V19.9134H10.0672V14.2427C13.5407 13.4344 16.1075 10.6097 16.1075 7.23194Z" transform="translate(86.8716 270.381)" fill="url(#paint1_linear)"/>
<path d="M12.218 10.6082L4.06206 2.45737L3.9003 2.61903V2.58075C3.04895 0.777026 1.60168 -0.337559 0.699249 0.0921033C-0.20318 0.521765 -0.237253 2.33827 0.626866 4.14199C0.812073 4.52895 1.03298 4.8978 1.28668 5.24379L0.435333 6.0946C0.435333 6.0946 21.2934 26.9396 29.4408 26.025L30.9775 20.3415C30.9775 20.3415 24.0049 20.5713 12.218 10.6082Z" transform="translate(61.7556 267.911)" fill="url(#paint2_linear)"/>
<path d="M6.70864 13.4089C10.4137 13.4089 13.4172 10.4072 13.4172 6.70442C13.4172 3.00166 10.4137 1.03859e-05 6.70864 1.03859e-05C3.00357 1.03859e-05 7.27471e-06 3.00166 7.27471e-06 6.70442C7.27471e-06 10.4072 3.00357 13.4089 6.70864 13.4089Z" transform="translate(88.021 271.155)" fill="#F8C198"/>
<path d="M3.35433 -4.15437e-06H1.03924e-05V6.70443H3.35433V-4.15437e-06Z" transform="translate(93.0522 282.892)" fill="#F8C198"/>
<path d="M10.0119 1.14245e-05H3.4054C1.52465 1.14245e-05 7.27471e-06 1.5237 7.27471e-06 3.40327V26.7709C7.27471e-06 28.6505 1.52465 30.1742 3.4054 30.1742H10.0119C11.8926 30.1742 13.4172 28.6505 13.4172 26.7709V3.40327C13.4172 1.5237 11.8926 1.14245e-05 10.0119 1.14245e-05Z" transform="translate(88.021 287.082)" fill="#605B38"/>
<path d="M28.2605 16.5356C28.2605 16.5356 21.8073 16.7653 10.9015 7.54248L3.35432 1.03859e-05L3.11773e-06 3.35223C3.11773e-06 3.35223 19.2916 22.6317 26.8175 21.7936L28.2605 16.5356Z" transform="translate(63.6978 271.155)" fill="#605B38"/>
<path d="M1.67697 6.70521C2.60313 6.70521 3.35393 5.2042 3.35393 3.3526C3.35393 1.50101 2.60313 -4.15486e-06 1.67697 -4.15486e-06C0.750805 -4.15486e-06 3.11737e-06 1.50101 3.11737e-06 3.3526C3.11737e-06 5.2042 0.750805 6.70521 1.67697 6.70521Z" transform="matrix(0.902239 -0.431236 0.431676 0.902029 62.4158 269.693)" fill="#F8C198"/>
<path d="M8.78167 17.5523C13.6316 17.5523 17.5633 13.6231 17.5633 8.77616C17.5633 3.92922 13.6316 -6.23156e-06 8.78167 -6.23156e-06C3.93169 -6.23156e-06 4.15698e-06 3.92922 4.15698e-06 8.77616C4.15698e-06 13.6231 3.93169 17.5523 8.78167 17.5523Z" transform="translate(117.15 269.649)" fill="url(#paint3_linear)"/>
<path d="M7.93883 15.8677C12.3233 15.8677 15.8776 12.3156 15.8776 7.93385C15.8776 3.5521 12.3233 1.14245e-05 7.93883 1.14245e-05C3.55434 1.14245e-05 -4.15698e-06 3.5521 -4.15698e-06 7.93385C-4.15698e-06 12.3156 3.55434 15.8677 7.93883 15.8677Z" transform="translate(117.993 270.491)" fill="#F8C198"/>
<path d="M3.97154 -8.30875e-06H-1.24709e-05V7.93386H3.97154V-8.30875e-06Z" transform="translate(123.943 284.377)" fill="#F8C198"/>
<path d="M42.6628 3.83286H32.8297C32.2916 3.83422 31.7617 3.96478 31.2847 4.21353C30.8076 4.46228 30.3973 4.82193 30.0884 5.26223C22.6178 6.23216 7.24669 7.7296 5.68872 3.83286L4.97359 4.36888C4.84553 3.87806 4.67019 3.40077 4.45002 2.94375C3.46246 0.884774 1.82786 -0.387188 0.797729 0.106285C-0.232403 0.599758 -0.270715 2.65873 0.71685 4.72621C1.04254 5.41527 1.47335 6.04962 1.99387 6.60653L1.5682 6.93408C1.5682 6.93408 17.2884 13.5492 29.4882 12.7239V37.6826C29.4904 38.5721 29.845 39.4245 30.4744 40.0535C31.1037 40.6824 31.9567 41.0368 32.8468 41.039H42.6798C43.5699 41.0368 44.4229 40.6824 45.0522 40.0535C45.6816 39.4245 46.0362 38.5721 46.0384 37.6826V7.18508C46.035 6.29337 45.6776 5.43945 45.0447 4.81091C44.4118 4.18236 43.5551 3.8306 42.6628 3.83286Z" transform="translate(88.7769 284.832)" fill="url(#paint4_linear)"/>
<path d="M12.4723 6.23156e-06H3.40539C1.52464 6.23156e-06 -8.31395e-06 1.5237 -8.31395e-06 3.40327V32.3012C-8.31395e-06 34.1808 1.52464 35.7045 3.40539 35.7045H12.4723C14.353 35.7045 15.8777 34.1808 15.8777 32.3012V3.40327C15.8777 1.5237 14.353 6.23156e-06 12.4723 6.23156e-06Z" transform="translate(117.988 289.337)" fill="#53AD9B"/>
<path d="M31.2615 0.816778C31.2615 0.816778 5.95518 4.96026 3.97154 2.07719e-06L-1.14317e-05 2.97786C-1.14317e-05 2.97786 18.8574 10.9117 30.7635 7.9381C42.6696 4.9645 31.2615 0.816778 31.2615 0.816778Z" transform="translate(91.1921 289.333)" fill="#53AD9B"/>
<path d="M1.98341 7.93902C3.07882 7.93902 3.96681 6.16183 3.96681 3.96952C3.96681 1.77722 3.07882 0 1.98341 0C0.888003 0 1.14304e-05 1.77722 1.14304e-05 3.96952C1.14304e-05 6.16183 0.888003 7.93902 1.98341 7.93902Z" transform="matrix(0.902239 -0.431236 0.431676 0.902029 88.6843 286.609)" fill="#F8C198"/>
<path d="M0.00552271 2.61719C0.211364 2.60022 0.417444 2.64708 0.595683 2.75137C0.773923 2.85566 0.915669 3.0123 1.00161 3.19999C1.81891 1.41328 3.75147 0.319987 5.68403 0.0689967C7.61659 -0.181994 9.6045 0.285955 11.4647 0.919813C13.8442 1.73234 16.1726 2.85542 17.9647 4.61661C19.7568 6.3778 20.9444 8.87069 20.7359 11.3678C20.5741 13.2098 19.6845 14.8987 18.8076 16.5238C18.267 17.532 17.6795 18.5785 16.7132 19.1868C14.6955 20.4631 11.835 19.1145 10.7538 16.9917C10.3962 16.2898 10.1749 15.5241 9.77901 14.8647C8.58287 12.8057 6.10544 11.9634 3.97281 10.8956C0.243903 9.00257 -0.0498149 6.39906 0.00552271 2.61719Z" transform="translate(118.166 267.24)" fill="url(#paint5_linear)"/>
<path d="M71.6836 4.15437e-06H-5.19622e-06V61.8926H71.6836V4.15437e-06Z" transform="translate(80.0269 296.301)" fill="url(#paint6_linear)"/>
<path d="M67.9334 4.15437e-06H-9.3532e-06V58.6723H67.9334V4.15437e-06Z" transform="translate(82.1509 296.301)" fill="#F5F5F5"/>
<path d="M-1.14317e-05 53.6142L2.83499 -8.30875e-06" transform="translate(149.246 242.687)" stroke="#AD7676" stroke-width="2" stroke-miterlimit="10"/>
<path d="M3.83532 53.6142L-1.24709e-05 -8.30875e-06" transform="translate(79.9927 242.687)" stroke="#AD7676" stroke-width="2" stroke-miterlimit="10"/>
<path opacity="0.2" d="M1.20892 7.92109C1.21284 5.92455 1.97025 4.00297 3.32986 2.54011C4.68947 1.07725 6.55121 0.180801 8.54328 0.0297786C8.34321 0.0297786 8.14315 -3.11578e-06 7.93883 -3.11578e-06C5.83332 -2.93841e-06 3.81404 0.835885 2.32522 2.32377C0.836405 3.81166 -6.90466e-06 5.82968 -6.90466e-06 7.93387C-6.90466e-06 10.0381 0.836405 12.056 2.32522 13.5439C3.81404 15.0318 5.83332 15.8677 7.93883 15.8677C8.14315 15.8677 8.34321 15.8677 8.54328 15.8379C6.54681 15.6866 4.68143 14.7865 3.32118 13.3182C1.96093 11.85 1.20641 9.92204 1.20892 7.92109Z" transform="translate(117.988 270.104)" fill="white"/>
<path opacity="0.2" d="M1.2004 7.93385C1.20127 5.93374 1.95842 4.00784 3.32012 2.54207C4.68183 1.07629 6.5475 0.178935 8.54328 0.0297858C8.34322 0.0297858 8.14316 4.15437e-06 7.93883 4.15437e-06C5.83333 4.15437e-06 3.81405 0.835892 2.32523 2.32378C0.836409 3.81167 -3.11773e-06 5.82966 -3.11773e-06 7.93385C-3.11773e-06 10.038 0.836409 12.0561 2.32523 13.5439C3.81405 15.0318 5.83333 15.8677 7.93883 15.8677C8.14316 15.8677 8.34322 15.8677 8.54328 15.8379C6.5475 15.6888 4.68183 14.7914 3.32012 13.3256C1.95842 11.8598 1.20127 9.93395 1.2004 7.93385Z" transform="translate(87.7952 269.287)" fill="white"/>
<path d="M5.14558 16.6124C5.57632 16.8992 5.97833 17.2268 6.34598 17.5909C7.77199 19.3648 5.06896 22.113 6.08207 24.1549C6.52903 25.0568 7.5932 25.5162 8.06996 26.4011C8.97665 28.0814 7.457 30.5403 8.77233 31.9314C9.12564 32.3015 9.62369 32.5184 9.90038 32.9524C10.4325 33.8032 9.68753 34.9348 9.80672 35.9302C9.9557 37.2064 11.3519 37.8871 12.5566 38.338C13.5825 38.7209 14.9276 39.0272 15.6257 38.1806C15.962 37.7552 16.0258 37.1979 16.3408 36.7683C16.9282 35.9643 18.1116 35.96 18.9757 35.4665C20.3166 34.7008 20.6444 32.9141 20.6444 31.3784C20.6444 29.8426 20.4911 28.1665 21.334 26.869C22.2875 25.3971 24.2669 24.8484 25.2204 23.3764C26.6634 21.1388 25.0714 18.012 26.1015 15.5574C26.4591 14.7066 27.1146 13.9877 27.3275 13.0943C27.6808 11.6181 26.7358 10.1165 25.6248 9.12528C24.5138 8.13408 23.1261 7.35558 22.1853 6.14742C21.5255 5.29661 21.0956 4.2969 20.3166 3.56945C18.4266 1.80826 15.4214 2.43787 12.8971 1.86782C10.5602 1.36158 8.40625 -0.237953 6.02673 0.0300536C3.94518 0.264028 2.31911 1.86356 0.867558 3.37375C0.486316 3.70346 0.205958 4.13403 0.0587666 4.61594C-0.366908 6.67066 1.6295 8.78495 2.50639 10.2909C3.62592 12.3073 3.28113 15.0512 5.14558 16.6124Z" transform="translate(88.26 266.709)" fill="#FCCC63"/>
<g opacity="0.2">
<path opacity="0.2" d="M0.861969 4.98178C2.31352 3.47159 3.93959 1.87206 6.02114 1.63808C8.3964 1.37008 10.5546 2.96961 12.8915 3.47585C15.4158 4.02463 18.4253 3.39502 20.311 5.17748C21.09 5.90493 21.52 6.92165 22.1797 7.75545C23.1205 8.94234 24.4911 9.70382 25.6192 10.7333C26.4022 11.394 26.9847 12.2604 27.3006 13.2347C27.3006 13.1879 27.3304 13.1411 27.3432 13.0943C27.6965 11.6182 26.7515 10.1165 25.6192 9.12528C24.4869 8.13408 23.1205 7.35558 22.1797 6.14742C21.52 5.29661 21.09 4.29687 20.311 3.56943C18.421 1.80824 15.4158 2.43784 12.8915 1.8678C10.5546 1.36156 8.40066 -0.237951 6.02114 0.0300557C3.93959 0.26403 2.31352 1.86356 0.861969 3.37376C0.480727 3.70346 0.200369 4.13404 0.0531777 4.61594C-0.0331182 5.08502 -0.0142162 5.5674 0.108517 6.0283C0.284195 5.63094 0.540805 5.27452 0.861969 4.98178Z" transform="translate(88.24 266.765)" fill="white"/>
<path opacity="0.2" d="M0.149755 -3.11578e-06C0.032201 0.414672 -0.016699 0.845772 0.00501446 1.27622C0.0233373 1.43368 0.061977 1.58812 0.119955 1.73567C0.256171 1.13159 0.40516 0.523249 0.149755 -3.11578e-06Z" transform="translate(98.0618 301.372)" fill="white"/>
<path opacity="0.2" d="M0.100918 1.14245e-05C-0.0135411 0.703337 -0.0307268 1.41905 0.0498394 2.12705C0.161938 1.42351 0.179116 0.708119 0.100918 1.14245e-05Z" transform="translate(96.4802 295.484)" fill="white"/>
<path opacity="0.2" d="M0.0918658 2.77365C0.132721 1.84855 0.108547 0.921733 0.0195084 1.14245e-05C-0.021727 0.925114 0.00244739 1.85195 0.0918658 2.77365Z" transform="translate(113.993 285.381)" fill="white"/>
<path opacity="0.2" d="M-8.31395e-06 0.68491C-8.31395e-06 0.531763 -8.31395e-06 0.378613 -8.31395e-06 0.22972C-8.31395e-06 0.153147 -8.31395e-06 0.0765828 -8.31395e-06 9.34734e-06C0.00424843 0.22973 -8.31395e-06 0.459444 -8.31395e-06 0.68491Z" transform="translate(108.887 297.875)" fill="white"/>
<path opacity="0.2" d="M0.80608 -7.27015e-06C0.499594 1.34003 -0.279374 2.81193 0.103733 4.06263C0.401705 2.66304 1.21898 1.18688 0.80608 -7.27015e-06Z" transform="translate(94.1106 286.478)" fill="white"/>
</g>
<path d="M0.00578803 2.46923C0.199397 2.45341 0.393173 2.49761 0.560744 2.5958C0.728316 2.694 0.861545 2.84142 0.942277 3.01799C1.71275 1.31636 3.53036 0.303889 5.36927 0.0656603C7.20819 -0.172568 9.06412 0.269862 10.8179 0.869687C13.0612 1.63542 15.2534 2.69469 16.9434 4.35378C18.6333 6.01287 19.7613 8.35687 19.5527 10.7349C19.3995 12.4706 18.5609 14.0616 17.7351 15.5931C17.2243 16.5417 16.6709 17.5287 15.76 18.103C13.8572 19.2984 11.1627 18.0349 10.1368 16.0355C9.80055 15.3761 9.59198 14.6529 9.21739 14.0148C8.08935 12.0749 5.75238 11.2837 3.74746 10.2755C0.227129 8.49299 -0.0495496 6.0384 0.00578803 2.46923Z" transform="translate(118.766 267.801)" fill="#263238"/>
<path opacity="0.2" d="M0.00319775 3.27323C0.196807 3.25742 0.390583 3.30164 0.558154 3.39984C0.725725 3.49803 0.858955 3.64545 0.939686 3.82202C1.71016 2.12039 3.52777 1.10792 5.36668 0.869692C7.2056 0.631463 9.06153 1.07389 10.8153 1.67372C13.0586 2.43945 15.2508 3.49872 16.9408 5.15781C18.4375 6.57674 19.3678 8.49055 19.5587 10.5435C19.6992 8.24201 18.5881 5.97459 16.9408 4.35378C15.2934 2.73298 13.0586 1.63543 10.8153 0.869692C9.06153 0.269866 7.20134 -0.172564 5.36668 0.0656644C3.53203 0.303893 1.71016 1.34189 0.939686 3.018C0.858955 2.84142 0.725725 2.694 0.558154 2.59581C0.390583 2.49761 0.196807 2.45342 0.00319775 2.46923C0.00319775 2.81381 0.00319775 3.14988 0.00319775 3.47319C-0.00105899 3.40512 -0.00105899 3.33704 0.00319775 3.27323Z" transform="translate(118.768 267.805)" fill="white"/>
<path d="M25.3702 9.34734e-06H4.15698e-06V8.85275H25.3702V9.34734e-06Z" transform="translate(102.145 239.062)" fill="#7B6DB0"/>
<g opacity="0.2">
<path opacity="0.2" d="M4.03113 -3.2456e-07C2.686 -3.2456e-07 1.34513 0.0382862 3.11773e-06 0.0978433C54.8524 2.46311 105.316 52.8484 105.316 114.703C105.316 176.557 54.8481 226.942 3.11773e-06 229.308C1.34513 229.367 2.69025 229.405 4.03113 229.405C60.4117 229.405 113.37 178.05 113.37 114.703C113.37 51.3552 60.4117 -3.2456e-07 4.03113 -3.2456e-07Z" transform="translate(115.63 5.2326)" fill="black"/>
</g>
<g opacity="0.2">
<path opacity="0.2" d="M4.8314 114.703C4.8314 52.2614 60.9778 1.47191 116.584 0.0340325C115.779 0.0340325 114.975 7.14033e-07 114.17 7.14033e-07C57.7896 7.14033e-07 -6.23546e-06 51.3723 -6.23546e-06 114.703C-6.23546e-06 178.033 57.7896 229.405 114.17 229.405C114.975 229.405 115.779 229.405 116.584 229.371C60.9821 227.917 4.8314 177.148 4.8314 114.703Z" transform="translate(7.1001 5.63239)" fill="white"/>
</g>
<path d="M72.8925 -1.14245e-05H1.24709e-05V23.7463H72.8925V-1.14245e-05Z" transform="translate(79.5925 218.94)" fill="#7B6DB0"/>
<path opacity="0.2" d="M38.481 7.13834C38.481 7.13834 -48.1012 106.041 38.481 219.842L67.0735 219.744C67.0735 219.744 -11.8593 125.729 63.451 -6.49121e-07L49.3569 3.21183L38.481 7.13834Z" transform="translate(41.1074 6.84912)" fill="white"/>
<path opacity="0.2" d="M28.5925 6.43642C28.5925 6.43642 115.175 106.833 28.5925 220.646L1.03924e-05 220.548C1.03924e-05 220.548 78.9328 125.734 3.62248 3.24561e-07L17.708 2.81195L28.5925 6.43642Z" transform="translate(126.306 6.04083)" fill="white"/>
<path d="M25.6554 12.8261C25.6554 19.9091 19.5768 25.6436 13.1065 25.6436C6.63626 25.6436 4.6766e-06 19.9006 4.6766e-06 12.8218C4.6766e-06 5.74301 6.632 5.19297e-07 13.1065 5.19297e-07C19.581 5.19297e-07 25.6554 5.74726 25.6554 12.8261Z" transform="translate(9.25464 292)" fill="url(#paint7_linear)"/>
<path d="M24.455 12.222C24.455 18.9732 18.6616 24.4439 12.4935 24.4439C6.32552 24.4439 6.23546e-06 18.9732 6.23546e-06 12.222C6.23546e-06 5.47075 6.32552 -2.59648e-07 12.4935 -2.59648e-07C18.6616 -2.59648e-07 24.455 5.47075 24.455 12.222Z" transform="translate(9.85474 292.604)" fill="#7B6DB0"/>
<path d="M7.84518 0H5.71584e-06V6.59382H7.84518V0Z" transform="translate(18.0107 323.578)" fill="url(#paint8_linear)"/>
<path d="M7.43227 0H0V6.2535H7.43227V0Z" transform="translate(18.2446 323.578)" fill="#7B6DB0"/>
<path d="M-3.63735e-06 5.71323L0.310743 -1.42807e-06" transform="translate(25.5835 317.865)" stroke="#AD7676" stroke-width="2" stroke-miterlimit="10"/>
<path d="M0.421415 5.71323L1.55887e-06 -1.42807e-06" transform="translate(18.0063 317.865)" stroke="#AD7676" stroke-width="2" stroke-miterlimit="10"/>
<g opacity="0.2">
<path opacity="0.2" d="M0.00548396 5.19297e-07C-0.00182798 0.0450832 -0.00182798 0.0910483 0.00548396 0.136131C0.00356913 0.151671 0.00356913 0.167386 0.00548396 0.182926C0.0262497 0.123717 0.0262497 0.0592099 0.00548396 5.19297e-07Z" transform="translate(20.0059 324.118)" fill="white"/>
<path opacity="0.2" d="M0.00790001 0C-0.00264026 0.0747863 -0.00264026 0.150679 0.00790001 0.225466C0.0182209 0.150664 0.0182209 0.0748015 0.00790001 0Z" transform="translate(19.812 323.493)" fill="white"/>
<path opacity="0.2" d="M1.2207e-06 0.0729123C1.2207e-06 0.0729123 1.2207e-06 0.038603 1.2207e-06 0.0257358V-6.54456e-07C1.2207e-06 0.0257336 1.2207e-06 0.047178 1.2207e-06 0.0729123Z" transform="translate(21.1692 323.748)" fill="white"/>
</g>
<path d="M2.77539 0H2.59811e-06V0.944404H2.77539V0Z" transform="translate(20.4285 317.482)" fill="#7B6DB0"/>
<g opacity="0.2">
<path opacity="0.2" d="M0.42567 0H-4.15698e-06C6.002 0.250991 11.523 5.62389 11.523 12.2135C11.523 18.803 5.98923 24.1759 -4.15698e-06 24.4269H0.42567C6.59369 24.4269 12.3871 18.9562 12.3871 12.205C12.3871 5.45373 6.6022 0 0.42567 0Z" transform="translate(21.9226 292.545)" fill="black"/>
</g>
<g opacity="0.2">
<path opacity="0.2" d="M0.532088 12.2177C0.532088 5.56434 6.67457 0.153148 12.7575 6.49121e-07H12.4935C6.32552 6.49121e-07 -5.19622e-06 5.47075 -5.19622e-06 12.222C-5.19622e-06 18.9732 6.32126 24.4439 12.4935 24.4439H12.7575C6.67457 24.2865 0.532088 18.8754 0.532088 12.2177Z" transform="translate(10.0293 292.608)" fill="white"/>
</g>
<path d="M7.97713 0H0V2.53118H7.97713V0Z" transform="translate(17.9639 315.334)" fill="#7B6DB0"/>
<path opacity="0.2" d="M4.21134 0.731701C4.21134 0.731701 -5.26417 11.2691 4.21134 23.3974H7.34005C7.34005 23.3974 -1.29689 13.3791 6.94416 -7.14033e-07L5.40322 0.34458L4.21134 0.731701Z" transform="translate(13.7524 292.761)" fill="white"/>
<path opacity="0.2" d="M3.12871 0.676399C3.12871 0.676399 12.6042 11.3754 3.12871 23.5038H1.03924e-06C1.03924e-06 23.5038 8.63693 13.4003 0.395875 1.94736e-07L1.93681 0.302039L3.12871 0.676399Z" transform="translate(23.0718 292.659)" fill="white"/>
<path d="M14 6.72019C14 10.4313 10.6829 13.4359 7.15215 13.4359C3.62137 13.4359 2.55199e-06 10.4269 2.55199e-06 6.71796C2.55199e-06 3.00904 3.61905 2.72085e-07 7.15215 2.72085e-07C10.6852 2.72085e-07 14 3.01127 14 6.72019Z" transform="translate(33.2546 255)" fill="url(#paint9_linear)"/>
<path d="M13.3449 6.40368C13.3449 9.94097 10.1835 12.8074 6.81765 12.8074C3.4518 12.8074 3.40266e-06 9.94097 3.40266e-06 6.40368C3.40266e-06 2.86639 3.4518 -1.36042e-07 6.81765 -1.36042e-07C10.1835 -1.36042e-07 13.3449 2.86639 13.3449 6.40368Z" transform="translate(33.582 255.316)" fill="#7B6DB0"/>
<path d="M4.28107 0H3.1191e-06V3.45482H4.28107V0Z" transform="translate(38.0327 271.545)" fill="url(#paint10_linear)"/>
<path d="M4.05575 0H0V3.27651H4.05575V0Z" transform="translate(38.1604 271.545)" fill="#7B6DB0"/>
<path d="M-1.98488e-06 2.99344L0.169571 -7.48233e-07" transform="translate(42.165 268.552)" stroke="#AD7676" stroke-width="2" stroke-miterlimit="10"/>
<path d="M0.229964 2.99344L8.50664e-07 -7.48233e-07" transform="translate(38.0305 268.552)" stroke="#AD7676" stroke-width="2" stroke-miterlimit="10"/>
<g opacity="0.2">
<path opacity="0.2" d="M0.00299256 2.72085e-07C-0.000997521 0.0236213 -0.000997521 0.0477046 0.00299256 0.0713256C0.00194765 0.0794675 0.00194765 0.0877019 0.00299256 0.0958438C0.0143243 0.0648212 0.0143243 0.0310229 0.00299256 2.72085e-07Z" transform="translate(39.1216 271.828)" fill="white"/>
<path opacity="0.2" d="M0.00431099 0C-0.00144078 0.0391842 -0.00144078 0.0789482 0.00431099 0.118132C0.00994303 0.0789402 0.00994303 0.0391921 0.00431099 0Z" transform="translate(39.0156 271.501)" fill="white"/>
<path opacity="0.2" d="M1.2207e-06 0.0382023C1.2207e-06 0.0382023 1.2207e-06 0.020226 1.2207e-06 0.0134842V-3.42901e-07C1.2207e-06 0.0134831 1.2207e-06 0.0247189 1.2207e-06 0.0382023Z" transform="translate(39.7563 271.634)" fill="white"/>
</g>
<path d="M1.51452 0H0V0.494819H1.51452V0Z" transform="translate(39.3521 268.351)" fill="#7B6DB0"/>
<g opacity="0.2">
<path opacity="0.2" d="M0.232286 0H-2.26844e-06C3.27526 0.131506 6.28804 2.94663 6.28804 6.39922C6.28804 9.85182 3.26829 12.6669 -2.26844e-06 12.7984H0.232286C3.59814 12.7984 6.75958 9.93206 6.75958 6.39477C6.75958 2.85747 3.60279 0 0.232286 0Z" transform="translate(40.1675 255.285)" fill="black"/>
</g>
<g opacity="0.2">
<path opacity="0.2" d="M0.290357 6.40145C0.290357 2.91542 3.64227 0.0802414 6.96167 3.40106e-07H6.81765C3.4518 3.40106e-07 -2.83555e-06 2.86639 -2.83555e-06 6.40368C-2.83555e-06 9.94097 3.44948 12.8074 6.81765 12.8074H6.96167C3.64227 12.7249 0.290357 9.88971 0.290357 6.40145Z" transform="translate(33.6772 255.319)" fill="white"/>
</g>
<path d="M4.35308 0H0V1.32621H4.35308V0Z" transform="translate(38.0073 267.226)" fill="#7B6DB0"/>
<path opacity="0.2" d="M2.2981 0.383374C2.2981 0.383374 -2.87263 5.9044 2.2981 12.259H4.00542C4.00542 12.259 -0.707708 7.00995 3.78939 -3.74116e-07L2.94851 0.180542L2.2981 0.383374Z" transform="translate(35.7092 255.399)" fill="white"/>
<path opacity="0.2" d="M1.70732 0.354398C1.70732 0.354398 6.87805 5.96012 1.70732 12.3148H5.67109e-07C5.67109e-07 12.3148 4.71312 7.02109 0.216027 1.02032e-07L1.05691 0.158253L1.70732 0.354398Z" transform="translate(40.7947 255.345)" fill="white"/>
<path d="M23 12.0949C23 18.7755 17.5516 24.1899 11.748 24.1899C5.94435 24.1899 0 18.772 0 12.0949C0 5.41784 5.9477 0 11.748 0C17.5482 0 23 5.41441 23 12.0949Z" transform="translate(206.255 279)" fill="url(#paint11_linear)"/>
<path d="M21.921 11.5288C21.921 17.8936 16.7273 23.0576 11.1984 23.0576C5.66959 23.0576 -4.90842e-06 17.9108 -4.90842e-06 11.5288C-4.90842e-06 5.14678 5.66959 -1.30889e-07 11.1984 -1.30889e-07C16.7273 -1.30889e-07 21.921 5.1605 21.921 11.5288Z" transform="translate(206.794 279.566)" fill="#4D8AF0"/>
<path d="M7.03002 0H-4.09035e-06V6.22074H7.03002V0Z" transform="translate(214.106 308.779)" fill="url(#paint12_linear)"/>
<path d="M6.66477 0H-5.72649e-06V5.89821H6.66477V0Z" transform="translate(214.313 308.779)" fill="#E6E6E6"/>
<path d="M-8.1807e-07 5.39039L0.278123 6.28269e-07" transform="translate(220.894 303.389)" stroke="#AD7676" stroke-width="2" stroke-miterlimit="10"/>
<path d="M0.375282 5.39039L-7.36263e-06 6.28269e-07" transform="translate(214.102 303.389)" stroke="#AD7676" stroke-width="2" stroke-miterlimit="10"/>
<g opacity="0.2">
<path opacity="0.2" d="M0.00524943 -1.15183e-06C-0.00174981 0.0431651 -0.00174981 0.0872194 0.00524943 0.130386C0.00349525 0.1452 0.00349525 0.160176 0.00524943 0.17499C0.0243983 0.118308 0.0243983 0.0566812 0.00524943 -1.15183e-06Z" transform="translate(215.883 309.287)" fill="white"/>
<path opacity="0.2" d="M0.00710118 1.04712e-06C-0.00235834 0.0705814 -0.00235834 0.142153 0.00710118 0.212733C0.0163559 0.142138 0.0163559 0.0705956 0.00710118 1.04712e-06Z" transform="translate(215.72 308.697)" fill="white"/>
<path opacity="0.2" d="M-4.88281e-06 0.0691867C-4.88281e-06 0.0691867 -4.88281e-06 0.0380532 -4.88281e-06 0.0242156V0C-4.88281e-06 0.0242157 -4.88281e-06 0.044971 -4.88281e-06 0.0691867Z" transform="translate(216.934 308.937)" fill="white"/>
</g>
<path d="M2.48966 0H6.54456e-06V0.888678H2.48966V0Z" transform="translate(216.274 303.025)" fill="#FFCC80"/>
<g opacity="0.2">
<path opacity="0.2" d="M0.395406 2.35601e-07H-8.1807e-06C5.3814 0.236752 10.3306 5.30461 10.3306 11.5185C10.3306 17.7324 5.37805 22.8071 -8.1807e-06 23.0473H0.395406C5.92425 23.0473 11.118 17.9005 11.118 11.5185C11.118 5.13649 5.9142 2.35601e-07 0.395406 2.35601e-07Z" transform="translate(217.597 279.525)" fill="black"/>
</g>
<g opacity="0.2">
<path opacity="0.2" d="M0.475816 11.5254C0.475816 5.24972 5.98456 0.14411 11.4363 -5.23558e-08H11.1984C5.66958 -5.23558e-08 5.72649e-06 5.14678 5.72649e-06 11.5288C5.72649e-06 17.9108 5.66958 23.0576 11.1984 23.0576H11.4363C5.98121 22.9032 0.475816 17.801 0.475816 11.5254Z" transform="translate(206.952 279.569)" fill="white"/>
</g>
<path d="M7.15064 0H-5.72649e-06V2.3881H7.15064V0Z" transform="translate(214.062 301.004)" fill="#FFCC80"/>
<path opacity="0.2" d="M3.77376 0.720549C3.77376 0.720549 -4.71721 10.671 3.77376 22.0968H6.57839C6.57839 22.0968 -1.16535 12.6371 6.21985 0L4.83596 0.322532L3.77376 0.720549Z" transform="translate(210.288 279.686)" fill="white"/>
<path opacity="0.2" d="M2.80464 0.638201C2.80464 0.638201 11.2956 10.7293 2.80464 22.1655H-9.81684e-06C-9.81684e-06 22.1655 7.74374 12.6371 0.355196 3.14134e-07L1.73906 0.284789L2.80464 0.638201Z" transform="translate(218.643 279.614)" fill="white"/>
<path d="M16 8.06252C16 12.5151 12.2097 16.125 8.17348 16.125C4.13725 16.125 3.21679e-06 12.5151 3.21679e-06 8.06252C3.21679e-06 3.60992 4.13725 1.47984e-07 8.17348 1.47984e-07C12.2097 1.47984e-07 16 3.60992 16 8.06252Z" transform="translate(170.255 251)" fill="url(#paint13_linear)"/>
<path d="M15.2556 7.68536C15.2556 11.9311 11.6432 15.3707 7.78919 15.3707C3.93523 15.3707 -1.17949e-05 11.9224 -1.17949e-05 7.68536C-1.17949e-05 3.44828 3.9528 1.47984e-07 7.78919 1.47984e-07C11.6256 1.47984e-07 15.2556 3.43966 15.2556 7.68536Z" transform="translate(170.624 251.377)" fill="#7B6DB0"/>
<path d="M4.89048 0H0V4.14656H4.89048V0Z" transform="translate(175.716 270.853)" fill="url(#paint14_linear)"/>
<path d="M4.63575 0H8.57809e-06V3.93104H4.63575V0Z" transform="translate(175.861 270.853)" fill="#7B6DB0"/>
<path d="M1.07226e-06 3.59268L0.193249 7.23479e-07" transform="translate(180.438 267.261)" stroke="#AD7676" stroke-width="2" stroke-miterlimit="10"/>
<path d="M0.261336 3.59268L-1.07226e-06 7.23479e-07" transform="translate(175.714 267.261)" stroke="#AD7676" stroke-width="2" stroke-miterlimit="10"/>
<g opacity="0.2">
<path opacity="0.2" d="M0.0036 2.63083e-07C-0.00119285 0.0285435 -0.00119285 0.0576645 0.0036 0.0862077C0.0023367 0.096227 0.0023367 0.106361 0.0036 0.11638C0.0168179 0.0786713 0.0168179 0.037709 0.0036 2.63083e-07Z" transform="translate(176.951 271.192)" fill="white"/>
<path opacity="0.2" d="M0.00496953 -1.31542e-07C-0.00164936 0.0471913 -0.00164936 0.0950509 0.00496953 0.142242C0.0114268 0.0950402 0.0114268 0.047202 0.00496953 -1.31542e-07Z" transform="translate(176.84 270.797)" fill="white"/>
<path opacity="0.2" d="M-2.92969e-05 0.0456304C-2.92969e-05 0.0456304 -2.92969e-05 0.0239016 -2.92969e-05 0.01521V-1.32623e-07C-2.92969e-05 0.0152101 -2.92969e-05 0.0304201 -2.92969e-05 0.0456304Z" transform="translate(177.684 270.959)" fill="white"/>
</g>
<path d="M1.73044 0H0V0.592673H1.73044V0Z" transform="translate(177.225 267.017)" fill="#7B6DB0"/>
<g opacity="0.2">
<path opacity="0.2" d="M0.274487 -8.22135e-08H-1.17949e-05C3.73318 0.159483 7.1853 3.53664 7.1853 7.67889C7.1853 11.8211 3.74196 15.2155 -1.17949e-05 15.3664H0.274487C4.12187 15.3664 7.74086 11.9181 7.74086 7.68105C7.74086 3.44397 4.12187 -8.22135e-08 0.274487 -8.22135e-08Z" transform="translate(178.145 251.349)" fill="black"/>
</g>
<g opacity="0.2">
<path opacity="0.2" d="M0.329393 7.68321C0.329393 3.50001 4.16139 0.0969832 7.95387 1.97312e-07H7.78917C3.94179 1.97312e-07 -5.36131e-06 3.44828 -5.36131e-06 7.68536C-5.36131e-06 11.9224 3.95278 15.3707 7.78917 15.3707H7.95387C4.1592 15.2694 0.329393 11.8664 0.329393 7.68321Z" transform="translate(170.74 251.379)" fill="white"/>
</g>
<path d="M4.97393 0H-2.14452e-06V1.59052H4.97393V0Z" transform="translate(175.685 265.67)" fill="#7B6DB0"/>
<path opacity="0.2" d="M2.62543 0.478449C2.62543 0.478449 -3.28179 7.10562 2.62543 14.7306H4.57547C4.57547 14.7306 -0.8091 8.42674 4.32952 -8.22135e-08L3.36768 0.215518L2.62543 0.478449Z" transform="translate(173.06 251.457)" fill="white"/>
<path opacity="0.2" d="M1.95005 0.42457C1.95005 0.42457 7.85726 7.15303 1.95005 14.778H3.21679e-06C3.21679e-06 14.778 5.38677 8.42459 0.248151 1.15099e-07L1.21 0.189655L1.95005 0.42457Z" transform="translate(178.874 251.412)" fill="white"/>
<defs>
<linearGradient id="paint0_linear" x2="1" gradientUnits="userSpaceOnUse" gradientTransform="translate(-3.16915 240.675) scale(240.825 240.675) rotate(-90)">
<stop stop-color="#808080" stop-opacity="0.25"/>
<stop offset="0.54" stop-color="#808080" stop-opacity="0.12"/>
<stop offset="1" stop-color="#808080" stop-opacity="0.1"/>
</linearGradient>
<linearGradient id="paint1_linear" x2="1" gradientUnits="userSpaceOnUse" gradientTransform="translate(10683.5 14285.6) scale(754.476 932.741) rotate(-90)">
<stop stop-color="#808080" stop-opacity="0.25"/>
<stop offset="0.54" stop-color="#808080" stop-opacity="0.12"/>
<stop offset="1" stop-color="#808080" stop-opacity="0.1"/>
</linearGradient>
<linearGradient id="paint2_linear" x2="1" gradientUnits="userSpaceOnUse" gradientTransform="translate(19036.4 18914.8) scale(1896.13 1594.78) rotate(-90)">
<stop stop-color="#808080" stop-opacity="0.25"/>
<stop offset="0.54" stop-color="#808080" stop-opacity="0.12"/>
<stop offset="1" stop-color="#808080" stop-opacity="0.1"/>
</linearGradient>
<linearGradient id="paint3_linear" x2="1" gradientUnits="userSpaceOnUse" gradientTransform="translate(12786.4 12130.8) scale(724.487 724.034) rotate(-90)">
<stop stop-color="#808080" stop-opacity="0.25"/>
<stop offset="0.54" stop-color="#808080" stop-opacity="0.12"/>
<stop offset="1" stop-color="#808080" stop-opacity="0.1"/>
</linearGradient>
<linearGradient id="paint4_linear" x2="1" gradientUnits="userSpaceOnUse" gradientTransform="translate(31217 32872.7) scale(4441.32 3959.04) rotate(-90)">
<stop stop-color="#808080" stop-opacity="0.25"/>
<stop offset="0.54" stop-color="#808080" stop-opacity="0.12"/>
<stop offset="1" stop-color="#808080" stop-opacity="0.1"/>
</linearGradient>
<linearGradient id="paint5_linear" x2="1" gradientUnits="userSpaceOnUse" gradientTransform="translate(15414.9 13964.3) scale(960.546 910.731) rotate(-90)">
<stop stop-color="#808080" stop-opacity="0.25"/>
<stop offset="0.54" stop-color="#808080" stop-opacity="0.12"/>
<stop offset="1" stop-color="#808080" stop-opacity="0.1"/>
</linearGradient>
<linearGradient id="paint6_linear" x2="1" gradientUnits="userSpaceOnUse" gradientTransform="translate(46756 53103.9) scale(10429.2 9004.75) rotate(-90)">
<stop stop-color="#808080" stop-opacity="0.25"/>
<stop offset="0.54" stop-color="#808080" stop-opacity="0.12"/>
<stop offset="1" stop-color="#808080" stop-opacity="0.1"/>
</linearGradient>
<linearGradient id="paint7_linear" x2="1" gradientUnits="userSpaceOnUse" gradientTransform="translate(7586.68 2616.16) scale(1546.76 1546.05) rotate(-90)">
<stop stop-color="#808080" stop-opacity="0.25"/>
<stop offset="0.54" stop-color="#808080" stop-opacity="0.12"/>
<stop offset="1" stop-color="#808080" stop-opacity="0.1"/>
</linearGradient>
<linearGradient id="paint8_linear" x2="1" gradientUnits="userSpaceOnUse" gradientTransform="translate(2407.49 741.541) scale(121.679 102.27) rotate(-90)">
<stop stop-color="#808080" stop-opacity="0.25"/>
<stop offset="0.54" stop-color="#808080" stop-opacity="0.12"/>
<stop offset="1" stop-color="#808080" stop-opacity="0.1"/>
</linearGradient>
<linearGradient id="paint9_linear" x2="1" gradientUnits="userSpaceOnUse" gradientTransform="translate(4140.01 1370.73) scale(844.06 810.051) rotate(-90)">
<stop stop-color="#808080" stop-opacity="0.25"/>
<stop offset="0.54" stop-color="#808080" stop-opacity="0.12"/>
<stop offset="1" stop-color="#808080" stop-opacity="0.1"/>
</linearGradient>
<linearGradient id="paint10_linear" x2="1" gradientUnits="userSpaceOnUse" gradientTransform="translate(1313.75 388.529) scale(66.3994 53.5843) rotate(-90)">
<stop stop-color="#808080" stop-opacity="0.25"/>
<stop offset="0.54" stop-color="#808080" stop-opacity="0.12"/>
<stop offset="1" stop-color="#808080" stop-opacity="0.1"/>
</linearGradient>
<linearGradient id="paint11_linear" x2="1" gradientUnits="userSpaceOnUse" gradientTransform="translate(22185.2 2164.75) scale(1621.27 1705.14) rotate(-90)">
<stop stop-color="#808080" stop-opacity="0.25"/>
<stop offset="0.54" stop-color="#808080" stop-opacity="0.12"/>
<stop offset="1" stop-color="#808080" stop-opacity="0.1"/>
</linearGradient>
<linearGradient id="paint12_linear" x2="1" gradientUnits="userSpaceOnUse" gradientTransform="translate(6885.72 652.68) scale(127.454 112.782) rotate(-90)">
<stop stop-color="#808080" stop-opacity="0.25"/>
<stop offset="0.54" stop-color="#808080" stop-opacity="0.12"/>
<stop offset="1" stop-color="#808080" stop-opacity="0.1"/>
</linearGradient>
<linearGradient id="paint13_linear" x2="1" gradientUnits="userSpaceOnUse" gradientTransform="translate(17590.6 1589.93) scale(1197.12 1206.48) rotate(-90)">
<stop stop-color="#808080" stop-opacity="0.25"/>
<stop offset="0.54" stop-color="#808080" stop-opacity="0.12"/>
<stop offset="1" stop-color="#808080" stop-opacity="0.1"/>
</linearGradient>
<linearGradient id="paint14_linear" x2="1" gradientUnits="userSpaceOnUse" gradientTransform="translate(5457.23 481.582) scale(94.0927 79.7798) rotate(-90)">
<stop stop-color="#808080" stop-opacity="0.25"/>
<stop offset="0.54" stop-color="#808080" stop-opacity="0.12"/>
<stop offset="1" stop-color="#808080" stop-opacity="0.1"/>
</linearGradient>
</defs>
</svg>
