<svg width="468" height="162" viewBox="0 0 468 162" fill="none" xmlns="http://www.w3.org/2000/svg">
<path d="M234 81C363.235 81 468 62.8675 468 40.5C468 18.1325 363.235 0 234 0C104.765 0 0 18.1325 0 40.5C0 62.8675 104.765 81 234 81Z" transform="translate(0 81)" fill="#EFF6E5"/>
<path d="M44.1552 0H4.14541C1.85597 0 3.4346e-06 1.86197 3.4346e-06 4.15882V15.1298C3.4346e-06 17.4267 1.85597 19.2887 4.14541 19.2887H44.1552C46.4446 19.2887 48.3006 17.4267 48.3006 15.1298V4.15882C48.3006 1.86197 46.4446 0 44.1552 0Z" transform="translate(82.2844 76.2137)" fill="#777777"/>
<path d="M44.1552 0H4.14541C1.85597 0 3.4346e-06 1.86197 3.4346e-06 4.15882V15.1298C3.4346e-06 17.4267 1.85597 19.2887 4.14541 19.2887H44.1552C46.4446 19.2887 48.3006 17.4267 48.3006 15.1298V4.15882C48.3006 1.86197 46.4446 0 44.1552 0Z" transform="translate(130.585 76.2137)" fill="#777777"/>
<path opacity="0.1" d="M44.1552 0H4.14541C1.85597 0 3.4346e-06 1.86197 3.4346e-06 4.15882V15.1298C3.4346e-06 17.4267 1.85597 19.2887 4.14541 19.2887H44.1552C46.4446 19.2887 48.3006 17.4267 48.3006 15.1298V4.15882C48.3006 1.86197 46.4446 0 44.1552 0Z" transform="translate(130.585 76.2137)" fill="black"/>
<path d="M44.1552 0H4.14541C1.85597 0 3.4346e-06 1.86197 3.4346e-06 4.15882V15.1298C3.4346e-06 17.4267 1.85597 19.2887 4.14541 19.2887H44.1552C46.4446 19.2887 48.3006 17.4267 48.3006 15.1298V4.15882C48.3006 1.86197 46.4446 0 44.1552 0Z" transform="translate(178.886 76.2137)" fill="#777777"/>
<path d="M44.1552 0H4.14541C1.85597 0 3.4346e-06 1.86197 3.4346e-06 4.15882V15.1298C3.4346e-06 17.4267 1.85597 19.2887 4.14541 19.2887H44.1552C46.4446 19.2887 48.3006 17.4267 48.3006 15.1298V4.15882C48.3006 1.86197 46.4446 0 44.1552 0Z" transform="translate(227.186 76.2137)" fill="#777777"/>
<path opacity="0.1" d="M44.1552 0H4.14541C1.85597 0 3.4346e-06 1.86197 3.4346e-06 4.15882V15.1298C3.4346e-06 17.4267 1.85597 19.2887 4.14541 19.2887H44.1552C46.4446 19.2887 48.3006 17.4267 48.3006 15.1298V4.15882C48.3006 1.86197 46.4446 0 44.1552 0Z" transform="translate(227.186 76.2137)" fill="black"/>
<path d="M44.1552 0H4.1454C1.85595 0 3.4346e-06 1.86197 3.4346e-06 4.15882V15.1298C3.4346e-06 17.4267 1.85595 19.2887 4.1454 19.2887H44.1552C46.4446 19.2887 48.3006 17.4267 48.3006 15.1298V4.15882C48.3006 1.86197 46.4446 0 44.1552 0Z" transform="translate(275.487 76.2137)" fill="#777777"/>
<path d="M44.1552 0H4.1454C1.85595 0 3.4346e-06 1.86197 3.4346e-06 4.15882V15.1298C3.4346e-06 17.4267 1.85595 19.2887 4.1454 19.2887H44.1552C46.4446 19.2887 48.3006 17.4267 48.3006 15.1298V4.15882C48.3006 1.86197 46.4446 0 44.1552 0Z" transform="translate(323.788 76.2137)" fill="#777777"/>
<path opacity="0.1" d="M44.1552 0H4.1454C1.85595 0 3.4346e-06 1.86197 3.4346e-06 4.15882V15.1298C3.4346e-06 17.4267 1.85595 19.2887 4.1454 19.2887H44.1552C46.4446 19.2887 48.3006 17.4267 48.3006 15.1298V4.15882C48.3006 1.86197 46.4446 0 44.1552 0Z" transform="translate(323.788 76.2137)" fill="black"/>
<path d="M44.1552 -6.31715e-06H4.14541C1.85596 -6.31715e-06 -1.25935e-05 1.86197 -1.25935e-05 4.15883V15.1298C-1.25935e-05 17.4267 1.85596 19.2887 4.14541 19.2887H44.1552C46.4446 19.2887 48.3006 17.4267 48.3006 15.1298V4.15883C48.3006 1.86197 46.4446 -6.31715e-06 44.1552 -6.31715e-06Z" transform="translate(372.088 76.2137) rotate(-180)" fill="#777777"/>
<path d="M44.1552 -6.31715e-06H4.14541C1.85596 -6.31715e-06 -1.25935e-05 1.86197 -1.25935e-05 4.15883V15.1298C-1.25935e-05 17.4267 1.85596 19.2887 4.14541 19.2887H44.1552C46.4446 19.2887 48.3006 17.4267 48.3006 15.1298V4.15883C48.3006 1.86197 46.4446 -6.31715e-06 44.1552 -6.31715e-06Z" transform="translate(323.788 76.2137) rotate(-180)" fill="#777777"/>
<path opacity="0.1" d="M44.1552 -6.31715e-06H4.14541C1.85596 -6.31715e-06 -1.25935e-05 1.86197 -1.25935e-05 4.15883V15.1298C-1.25935e-05 17.4267 1.85596 19.2887 4.14541 19.2887H44.1552C46.4446 19.2887 48.3006 17.4267 48.3006 15.1298V4.15883C48.3006 1.86197 46.4446 -6.31715e-06 44.1552 -6.31715e-06Z" transform="translate(323.788 76.2137) rotate(-180)" fill="black"/>
<path d="M44.1552 -6.31715e-06H4.14541C1.85596 -6.31715e-06 -1.25935e-05 1.86197 -1.25935e-05 4.15883V15.1298C-1.25935e-05 17.4267 1.85596 19.2887 4.14541 19.2887H44.1552C46.4446 19.2887 48.3006 17.4267 48.3006 15.1298V4.15883C48.3006 1.86197 46.4446 -6.31715e-06 44.1552 -6.31715e-06Z" transform="translate(275.487 76.2137) rotate(-180)" fill="#777777"/>
<path d="M44.1552 -6.31715e-06H4.14541C1.85596 -6.31715e-06 0 1.86197 0 4.15883V15.1298C0 17.4267 1.85596 19.2887 4.14541 19.2887H44.1552C46.4446 19.2887 48.3006 17.4267 48.3006 15.1298V4.15883C48.3006 1.86197 46.4446 -6.31715e-06 44.1552 -6.31715e-06Z" transform="translate(227.186 76.2137) rotate(-180)" fill="#777777"/>
<path opacity="0.1" d="M44.1552 -6.31715e-06H4.14541C1.85596 -6.31715e-06 0 1.86197 0 4.15883V15.1298C0 17.4267 1.85596 19.2887 4.14541 19.2887H44.1552C46.4446 19.2887 48.3006 17.4267 48.3006 15.1298V4.15883C48.3006 1.86197 46.4446 -6.31715e-06 44.1552 -6.31715e-06Z" transform="translate(227.186 76.2137) rotate(-180)" fill="black"/>
<path d="M44.1552 -6.31715e-06H4.14541C1.85596 -6.31715e-06 0 1.86197 0 4.15883V15.1298C0 17.4267 1.85596 19.2887 4.14541 19.2887H44.1552C46.4446 19.2887 48.3006 17.4267 48.3006 15.1298V4.15883C48.3006 1.86197 46.4446 -6.31715e-06 44.1552 -6.31715e-06Z" transform="translate(178.886 76.2137) rotate(-180)" fill="#777777"/>
<path d="M44.1552 -6.31715e-06H4.14541C1.85596 -6.31715e-06 0 1.86197 0 4.15883V15.1298C0 17.4267 1.85596 19.2887 4.14541 19.2887H44.1552C46.4446 19.2887 48.3006 17.4267 48.3006 15.1298V4.15883C48.3006 1.86197 46.4446 -6.31715e-06 44.1552 -6.31715e-06Z" transform="translate(130.585 76.2137) rotate(-180)" fill="#777777"/>
<path opacity="0.1" d="M44.1552 -6.31715e-06H4.14541C1.85596 -6.31715e-06 0 1.86197 0 4.15883V15.1298C0 17.4267 1.85596 19.2887 4.14541 19.2887H44.1552C46.4446 19.2887 48.3006 17.4267 48.3006 15.1298V4.15883C48.3006 1.86197 46.4446 -6.31715e-06 44.1552 -6.31715e-06Z" transform="translate(130.585 76.2137) rotate(-180)" fill="black"/>
<path d="M44.1552 0H4.14541C1.85597 0 3.4346e-06 1.86197 3.4346e-06 4.15882V15.1298C3.4346e-06 17.4267 1.85597 19.2887 4.14541 19.2887H44.1552C46.4446 19.2887 48.3006 17.4267 48.3006 15.1298V4.15882C48.3006 1.86197 46.4446 0 44.1552 0Z" transform="translate(82.2844 37.6364)" fill="#777777"/>
<path d="M44.1552 0H4.14541C1.85597 0 3.4346e-06 1.86197 3.4346e-06 4.15882V15.1298C3.4346e-06 17.4267 1.85597 19.2887 4.14541 19.2887H44.1552C46.4446 19.2887 48.3006 17.4267 48.3006 15.1298V4.15882C48.3006 1.86197 46.4446 0 44.1552 0Z" transform="translate(130.585 37.6364)" fill="#777777"/>
<path opacity="0.1" d="M44.1552 0H4.14541C1.85597 0 3.4346e-06 1.86197 3.4346e-06 4.15882V15.1298C3.4346e-06 17.4267 1.85597 19.2887 4.14541 19.2887H44.1552C46.4446 19.2887 48.3006 17.4267 48.3006 15.1298V4.15882C48.3006 1.86197 46.4446 0 44.1552 0Z" transform="translate(130.585 37.6364)" fill="black"/>
<path d="M44.1552 0H4.14541C1.85597 0 3.4346e-06 1.86197 3.4346e-06 4.15882V15.1298C3.4346e-06 17.4267 1.85597 19.2887 4.14541 19.2887H44.1552C46.4446 19.2887 48.3006 17.4267 48.3006 15.1298V4.15882C48.3006 1.86197 46.4446 0 44.1552 0Z" transform="translate(178.886 37.6364)" fill="#777777"/>
<path d="M44.1552 0H4.14541C1.85597 0 3.4346e-06 1.86197 3.4346e-06 4.15882V15.1298C3.4346e-06 17.4267 1.85597 19.2887 4.14541 19.2887H44.1552C46.4446 19.2887 48.3006 17.4267 48.3006 15.1298V4.15882C48.3006 1.86197 46.4446 0 44.1552 0Z" transform="translate(227.186 37.6364)" fill="#777777"/>
<path opacity="0.1" d="M44.1552 0H4.14541C1.85597 0 3.4346e-06 1.86197 3.4346e-06 4.15882V15.1298C3.4346e-06 17.4267 1.85597 19.2887 4.14541 19.2887H44.1552C46.4446 19.2887 48.3006 17.4267 48.3006 15.1298V4.15882C48.3006 1.86197 46.4446 0 44.1552 0Z" transform="translate(227.186 37.6364)" fill="black"/>
<path d="M44.1552 0H4.1454C1.85595 0 3.4346e-06 1.86197 3.4346e-06 4.15882V15.1298C3.4346e-06 17.4267 1.85595 19.2887 4.1454 19.2887H44.1552C46.4446 19.2887 48.3006 17.4267 48.3006 15.1298V4.15882C48.3006 1.86197 46.4446 0 44.1552 0Z" transform="translate(275.487 37.6364)" fill="#777777"/>
<path d="M44.1552 0H4.1454C1.85595 0 3.4346e-06 1.86197 3.4346e-06 4.15882V15.1298C3.4346e-06 17.4267 1.85595 19.2887 4.1454 19.2887H44.1552C46.4446 19.2887 48.3006 17.4267 48.3006 15.1298V4.15882C48.3006 1.86197 46.4446 0 44.1552 0Z" transform="translate(323.788 37.6364)" fill="#777777"/>
<path opacity="0.1" d="M44.1552 0H4.1454C1.85595 0 3.4346e-06 1.86197 3.4346e-06 4.15882V15.1298C3.4346e-06 17.4267 1.85595 19.2887 4.1454 19.2887H44.1552C46.4446 19.2887 48.3006 17.4267 48.3006 15.1298V4.15882C48.3006 1.86197 46.4446 0 44.1552 0Z" transform="translate(323.788 37.6364)" fill="black"/>
<path d="M44.1552 -6.31715e-06H4.14541C1.85596 -6.31715e-06 -1.25935e-05 1.86197 -1.25935e-05 4.15883V15.1298C-1.25935e-05 17.4267 1.85596 19.2887 4.14541 19.2887H44.1552C46.4446 19.2887 48.3006 17.4267 48.3006 15.1298V4.15883C48.3006 1.86197 46.4446 -6.31715e-06 44.1552 -6.31715e-06Z" transform="translate(323.788 37.6364) rotate(-180)" fill="#777777"/>
<path opacity="0.1" d="M44.1552 -6.31715e-06H4.14541C1.85596 -6.31715e-06 -1.25935e-05 1.86197 -1.25935e-05 4.15883V15.1298C-1.25935e-05 17.4267 1.85596 19.2887 4.14541 19.2887H44.1552C46.4446 19.2887 48.3006 17.4267 48.3006 15.1298V4.15883C48.3006 1.86197 46.4446 -6.31715e-06 44.1552 -6.31715e-06Z" transform="translate(323.788 37.6364) rotate(-180)" fill="black"/>
<path d="M44.1552 -6.31715e-06H4.14541C1.85596 -6.31715e-06 -1.25935e-05 1.86197 -1.25935e-05 4.15883V15.1298C-1.25935e-05 17.4267 1.85596 19.2887 4.14541 19.2887H44.1552C46.4446 19.2887 48.3006 17.4267 48.3006 15.1298V4.15883C48.3006 1.86197 46.4446 -6.31715e-06 44.1552 -6.31715e-06Z" transform="translate(275.487 37.6364) rotate(-180)" fill="#777777"/>
<path d="M44.1552 -6.31715e-06H4.14541C1.85596 -6.31715e-06 0 1.86197 0 4.15883V15.1298C0 17.4267 1.85596 19.2887 4.14541 19.2887H44.1552C46.4446 19.2887 48.3006 17.4267 48.3006 15.1298V4.15883C48.3006 1.86197 46.4446 -6.31715e-06 44.1552 -6.31715e-06Z" transform="translate(227.186 37.6364) rotate(-180)" fill="#777777"/>
<path opacity="0.1" d="M44.1552 -6.31715e-06H4.14541C1.85596 -6.31715e-06 0 1.86197 0 4.15883V15.1298C0 17.4267 1.85596 19.2887 4.14541 19.2887H44.1552C46.4446 19.2887 48.3006 17.4267 48.3006 15.1298V4.15883C48.3006 1.86197 46.4446 -6.31715e-06 44.1552 -6.31715e-06Z" transform="translate(227.186 37.6364) rotate(-180)" fill="black"/>
<path d="M44.1552 -6.31715e-06H4.14541C1.85596 -6.31715e-06 0 1.86197 0 4.15883V15.1298C0 17.4267 1.85596 19.2887 4.14541 19.2887H44.1552C46.4446 19.2887 48.3006 17.4267 48.3006 15.1298V4.15883C48.3006 1.86197 46.4446 -6.31715e-06 44.1552 -6.31715e-06Z" transform="translate(178.886 37.6364) rotate(-180)" fill="#777777"/>
<path d="M44.1552 -6.31715e-06H4.14541C1.85596 -6.31715e-06 0 1.86197 0 4.15883V15.1298C0 17.4267 1.85596 19.2887 4.14541 19.2887H44.1552C46.4446 19.2887 48.3006 17.4267 48.3006 15.1298V4.15883C48.3006 1.86197 46.4446 -6.31715e-06 44.1552 -6.31715e-06Z" transform="translate(130.585 37.6364) rotate(-180)" fill="#777777"/>
<path d="M44.1552 0H4.14541C1.85597 0 3.4346e-06 1.86197 3.4346e-06 4.15882V15.1298C3.4346e-06 17.4267 1.85597 19.2887 4.14541 19.2887H44.1552C46.4446 19.2887 48.3006 17.4267 48.3006 15.1298V4.15882C48.3006 1.86197 46.4446 0 44.1552 0Z" transform="translate(130.585)" fill="#777777"/>
<path d="M-2.28974e-06 3.17557C-2.28974e-06 4.93037 3.16533 10.016 3.16533 10.016C3.16533 10.016 6.33066 4.93037 6.33066 3.17557C6.33066 2.33336 5.99717 1.52564 5.40356 0.930101C4.80994 0.334566 4.00483 1.72286e-06 3.16533 1.72286e-06C2.32583 1.72286e-06 1.52072 0.334566 0.927104 0.930101C0.33349 1.52564 -2.28974e-06 2.33336 -2.28974e-06 3.17557Z" transform="translate(56.8259 56.7275)" fill="#777777"/>
<path d="M0.499358 4.88751C1.43723 6.36004 6.86284 8.90051 6.86284 8.90051C6.86284 8.90051 6.76436 2.90688 5.81242 1.43436C5.35376 0.732566 4.63686 0.241449 3.81837 0.0683191C2.99987 -0.104811 2.14636 0.0541402 1.44432 0.510419C0.742279 0.966697 0.248808 1.68322 0.0717426 2.50339C-0.105323 3.32357 0.0484143 4.18071 0.499358 4.88751Z" transform="translate(51.0933 64.7305)" fill="#777777"/>
<path d="M1.68953 5.9799C3.25109 6.77027 9.19253 6.22452 9.19253 6.22452C9.19253 6.22452 6.09285 1.10126 4.53129 0.310895C3.78441 -0.047545 2.92728 -0.0981309 2.14366 0.169965C1.36004 0.438062 0.712315 1.0035 0.339355 1.74506C-0.0336047 2.48662 -0.102108 3.3453 0.148534 4.13693C0.399176 4.92857 0.949005 5.59018 1.68015 5.9799H1.68953Z" transform="translate(50.1328 80.2357)" fill="#777777"/>
<path d="M1.13846 5.62642C2.54527 6.67083 8.50078 7.14127 8.50078 7.14127C8.50078 7.14127 6.30615 1.56637 4.90403 0.521965C4.22715 0.0755896 3.40546 -0.0934486 2.60809 0.0496144C1.81072 0.192677 1.09837 0.636952 0.617665 1.29102C0.136958 1.94509 -0.0755178 2.75917 0.0239795 3.56565C0.123477 4.37214 0.527373 5.10967 1.15253 5.62642H1.13846Z" transform="translate(53.6755 93.108)" fill="#777777"/>
<path d="M7.09503 5.46669C5.84296 6.68988 3.4346e-06 7.95539 3.4346e-06 7.95539C3.4346e-06 7.95539 1.43026 2.13586 2.68232 0.898562C2.98038 0.607882 3.33259 0.378962 3.71883 0.224839C4.10508 0.0707156 4.5178 -0.00557601 4.93344 0.000321554C5.34908 0.00621912 5.75948 0.0941893 6.14123 0.25921C6.52298 0.42423 6.8686 0.663058 7.15834 0.962078C7.44808 1.2611 7.67628 1.61444 7.82991 2.00194C7.98353 2.38944 8.05958 2.80351 8.0537 3.22049C8.04782 3.63747 7.96013 4.04919 7.79565 4.43217C7.63116 4.81516 7.39309 5.16191 7.09503 5.45259V5.46669Z" transform="translate(57.5059 68.5031)" fill="#777777"/>
<path d="M7.50301 5.94992C5.94144 6.74028 2.00352e-06 6.19456 2.00352e-06 6.19456C2.00352e-06 6.19456 3.09968 1.0713 4.66125 0.280939C5.40542 -0.0558702 6.25052 -0.0912012 7.02004 0.182334C7.78956 0.455869 8.42398 1.0171 8.79078 1.74881C9.15757 2.48053 9.22838 3.32613 8.98841 4.10899C8.74844 4.89184 8.21625 5.55141 7.50301 5.94992Z" transform="translate(60.4131 82.6933)" fill="#777777"/>
<path d="M7.36232 5.62642C5.95551 6.67083 2.00352e-06 7.14127 2.00352e-06 7.14127C2.00352e-06 7.14127 2.19463 1.56637 3.59675 0.521962C4.27363 0.0755873 5.09532 -0.0934509 5.89269 0.0496121C6.69005 0.192675 7.40241 0.636979 7.88312 1.29105C8.36382 1.94511 8.5763 2.75917 8.4768 3.56565C8.37731 4.37213 7.97341 5.10967 7.34826 5.62642H7.36232Z" transform="translate(61.8201 97.7515)" fill="#777777"/>
<path d="M16.2174 -5.74286e-06C16.2174 -5.74286e-06 31.6407 15.4733 22.9326 38.4315C14.2244 61.3897 37.8588 99.5906 37.8588 99.5906C37.8588 99.5906 37.6056 99.553 37.1367 99.4683C5.45992 93.837 -10.2776 57.4896 7.33568 30.4949C13.8821 20.4554 19.2608 8.68459 16.2174 -5.74286e-06Z" transform="translate(270.833 31.1535)" fill="#777777"/>
<path opacity="0.2" d="M16.2174 -5.74286e-06C16.2174 -5.74286e-06 31.6407 15.4733 22.9326 38.4315C14.2244 61.3897 37.8588 99.5906 37.8588 99.5906C37.8588 99.5906 37.6056 99.553 37.1367 99.4683C5.45992 93.837 -10.2776 57.4896 7.33568 30.4949C13.8821 20.4554 19.2608 8.68459 16.2174 -5.74286e-06Z" transform="translate(270.833 31.1535)" fill="black"/>
<path d="M0 0.194965C0 0.194965 17.5992 -2.62778 19.203 13.2077C20.8068 29.0433 53.0416 31.2215 53.0416 31.2215L52.4366 31.6261C25.8197 49.1552 0.38452 42.79 4.21105 19.5166C5.63662 10.8649 5.51002 2.16617 0 0.194965Z" transform="translate(259.585 93.5339)" fill="#777777"/>
<path opacity="0.2" d="M0 0.194965C0 0.194965 17.5992 -2.62778 19.203 13.2077C20.8068 29.0433 53.0416 31.2215 53.0416 31.2215L52.4366 31.6261C25.8197 49.1552 0.38452 42.79 4.21105 19.5166C5.63662 10.8649 5.51002 2.16617 0 0.194965Z" transform="translate(259.585 93.5339)" fill="#F5F5F5"/>
<path d="M102.545 25.7451C102.545 25.7451 76.4255 20.5043 69.4571 13.5133C62.4887 6.52235 31.1448 -5.70476 27.6606 3.03159C24.1764 11.7679 -19.3551 41.4725 10.2724 46.7133C39.8999 51.9542 79.9284 53.6996 88.6366 50.2088C97.3448 46.718 102.545 25.7451 102.545 25.7451Z" transform="translate(290.931 104.406)" fill="#A8A8A8"/>
<path opacity="0.2" d="M10.2501 17.9008C39.8541 23.1417 79.9061 24.8871 88.6143 21.3963C95.245 18.7335 99.8688 5.95125 101.674 -1.14857e-05L102.546 0.183473C102.546 0.183473 97.3224 21.147 88.6143 24.6471C79.9061 28.1473 39.8447 26.3925 10.2501 21.1517C1.70602 19.6368 -0.737133 16.0849 0.181986 11.5873C0.871324 14.5182 3.86782 16.7717 10.2501 17.9008Z" transform="translate(290.954 129.973)" fill="black"/>
<path d="M23.8991 -8.04e-06C23.8991 -8.04e-06 11.2378 7.99773 6.07946 5.64545C0.92114 3.29318 -0.954611 7.05682 0.452203 8.46818C1.85902 9.87955 32.34 22.1114 39.374 20.2296C46.4081 18.3477 42.8301 2.93563 42.8301 2.93563L23.8991 -8.04e-06Z" transform="translate(325.764 106.953)" fill="#535461"/>
<path opacity="0.5" d="M39.3775 12.4482C32.3434 14.3301 1.86248 2.09822 0.455662 0.686856C0.268179 0.496066 0.133951 0.259222 0.0664355 1.03371e-05C-0.0148115 0.281913 -0.0216593 0.580133 0.0465721 0.865488C0.114803 1.15084 0.25578 1.41352 0.455662 1.62777C1.86248 3.03913 32.3434 15.271 39.3775 13.3891C42.9977 12.42 43.8043 7.87073 43.7386 3.67897C43.6683 7.58375 42.7257 11.545 39.3775 12.4482Z" transform="translate(325.761 113.794)" fill="white"/>
<path d="M0.703403 1.41135C0.889959 1.41135 1.06888 1.33701 1.20079 1.20467C1.33271 1.07233 1.40681 0.892829 1.40681 0.70567C1.40681 0.518511 1.33271 0.339043 1.20079 0.206702C1.06888 0.0743604 0.889959 -1.26343e-05 0.703403 -1.26343e-05C0.516848 -1.26343e-05 0.33793 0.0743604 0.206016 0.206702C0.0741012 0.339043 -3.4346e-06 0.518511 -3.4346e-06 0.70567C-3.4346e-06 0.892829 0.0741012 1.07233 0.206016 1.20467C0.33793 1.33701 0.516848 1.41135 0.703403 1.41135Z" transform="translate(241.85 119.768)" fill="#67647E"/>
<path d="M8.58651e-07 9.48783C8.58651e-07 9.48783 17.5008 8.94679 22.7716 5.17844C28.0425 1.41009 49.6886 -3.08745 50.997 2.9532C52.3053 8.99384 77.2997 33.0059 57.5246 33.1847C37.7495 33.3634 11.6203 30.0984 6.35411 26.8805C1.08794 23.6626 8.58651e-07 9.48783 8.58651e-07 9.48783Z" transform="translate(50.0076 99.2108)" fill="#A8A8A8"/>
<path opacity="0.2" d="M57.8951 21.5986C38.1387 21.7585 11.9907 18.5124 6.72457 15.2945C2.71515 12.8434 1.09732 4.05533 0.586173 8.04e-06H8.58651e-07C8.58651e-07 8.04e-06 1.10669 14.1607 6.37286 17.3739C11.639 20.5871 37.787 23.8615 57.5246 23.7203C63.2269 23.6733 65.1964 21.6409 65.0886 18.6253C64.3148 20.4272 62.139 21.5657 57.8951 21.5986Z" transform="translate(50.0076 108.675)" fill="black"/>
</svg>
