<svg width="380" height="342" viewBox="0 0 380 342" fill="none" xmlns="http://www.w3.org/2000/svg">
<path opacity="0.1" d="M-2.64257e-07 2.52237e-06C6.01293 25.5536 18.7419 47.6426 38.8589 58.3496C80.6654 80.6005 174.95 69.1255 245.318 55.9389C280.872 49.3003 313.145 30.959 336.942 3.86747L-2.64257e-07 2.52237e-06Z" transform="translate(4.10681 148.083)" fill="#F68B20"/>
<path opacity="0.1" d="M359.283 27.8023H320.673C319.788 27.8023 318.939 27.4527 318.314 26.8304C317.688 26.2082 317.336 25.3642 317.336 24.4841C317.336 23.6041 317.688 22.7601 318.314 22.1378C318.939 21.5155 319.788 21.166 320.673 21.166H327.348C326.463 21.166 325.614 20.8164 324.988 20.1941C324.362 19.5718 324.011 18.7278 324.011 17.8478C324.011 16.9677 324.362 16.1238 324.988 15.5015C325.614 14.8792 326.463 14.5296 327.348 14.5296H322.582C321.697 14.5296 320.848 14.18 320.222 13.5577C319.596 12.9355 319.245 12.0915 319.245 11.2114C319.245 10.3314 319.596 9.4874 320.222 8.86513C320.848 8.24285 321.697 7.89325 322.582 7.89325H342.733C338.262 5.82693 333.035 4.35639 327.015 3.58496C272.068 -3.43366 252.449 1.20869 245.529 5.99568C236.991 11.8847 227.466 16.2171 217.286 18.3041C183.38 25.2504 119.978 33.619 62.5123 15.6179C33.9509 6.66379 12.7221 21.7893 2.11406e-07 47.0536H365.985C365.507 39.7112 364.077 32.9337 361.451 26.9964C360.849 27.5151 360.079 27.8012 359.283 27.8023Z" transform="translate(13.8258)" fill="#F68B20"/>
<path opacity="0.1" d="M0.830174 4.20395e-06C-0.652098 14.8621 -0.14779 29.854 2.32994 44.5844L341.312 56.9101C350.748 46.1173 358.671 34.1038 364.865 21.1971L0.830174 4.20395e-06ZM134.902 31.8042H128.227C129.112 31.8042 129.961 32.1538 130.587 32.7761C131.213 33.3984 131.565 34.2423 131.565 35.1224C131.565 36.0024 131.213 36.8464 130.587 37.4687C129.961 38.091 129.112 38.4406 128.227 38.4406H89.6179C88.7328 38.4406 87.8839 38.091 87.2581 37.4687C86.6322 36.8464 86.2806 36.0024 86.2806 35.1224C86.2806 34.2423 86.6322 33.3984 87.2581 32.7761C87.8839 32.1538 88.7328 31.8042 89.6179 31.8042H96.2923C95.4073 31.8042 94.5584 31.4546 93.9326 30.8323C93.3067 30.2101 92.9551 29.3661 92.9551 28.486C92.9551 27.606 93.3067 26.762 93.9326 26.1397C94.5584 25.5174 95.4073 25.1679 96.2923 25.1679H91.5263C90.6412 25.1679 89.7924 24.8183 89.1665 24.196C88.5407 23.5737 88.1891 22.7297 88.1891 21.8497C88.1891 20.9696 88.5407 20.1257 89.1665 19.5034C89.7924 18.8811 90.6412 18.5315 91.5263 18.5315H130.136C131.021 18.5315 131.87 18.8811 132.496 19.5034C133.121 20.1257 133.473 20.9696 133.473 21.8497C133.473 22.7297 133.121 23.5737 132.496 24.196C131.87 24.8183 131.021 25.1679 130.136 25.1679H134.902C135.787 25.1679 136.636 25.5174 137.262 26.1397C137.887 26.762 138.239 27.606 138.239 28.486C138.239 29.3661 137.887 30.2101 137.262 30.8323C136.636 31.4546 135.787 31.8042 134.902 31.8042Z" transform="translate(0 94.7479)" fill="#F68B20"/>
<path opacity="0.1" d="M378.943 1.68158e-06L8.85314 8.95408C4.35383 20.4601 1.38547 33.4676 0 46.9504H372.459C374.89 39.0302 376.689 30.9315 377.838 22.7296C378.946 14.8052 379.389 7.13916 378.943 1.68158e-06ZM75.1339 29.3315H68.4594C69.3445 29.3315 70.1933 29.6811 70.8192 30.3034C71.4451 30.9257 71.7966 31.7696 71.7966 32.6497C71.7966 33.5297 71.4451 34.3737 70.8192 34.996C70.1933 35.6183 69.3445 35.9679 68.4594 35.9679H29.8499C28.9648 35.9679 28.116 35.6183 27.4901 34.996C26.8642 34.3737 26.5126 33.5297 26.5126 32.6497C26.5126 31.7696 26.8642 30.9257 27.4901 30.3034C28.116 29.6811 28.9648 29.3315 29.8499 29.3315H36.5244C35.6393 29.3315 34.7904 28.9819 34.1646 28.3596C33.5387 27.7373 33.1871 26.8934 33.1871 26.0133C33.1871 25.1333 33.5387 24.2893 34.1646 23.667C34.7904 23.0447 35.6393 22.6951 36.5244 22.6951H31.7584C30.8733 22.6951 30.0244 22.3456 29.3986 21.7233C28.7727 21.101 28.4211 20.257 28.4211 19.377C28.4211 18.4969 28.7727 17.6529 29.3986 17.0307C30.0244 16.4084 30.8733 16.0588 31.7584 16.0588H70.3679C71.253 16.0588 72.1018 16.4084 72.7277 17.0307C73.3535 17.6529 73.7051 18.4969 73.7051 19.377C73.7051 20.257 73.3535 21.101 72.7277 21.7233C72.1018 22.3456 71.253 22.6951 70.3679 22.6951H75.1339C76.019 22.6951 76.8678 23.0447 77.4937 23.667C78.1195 24.2893 78.4711 25.1333 78.4711 26.0133C78.4711 26.8934 78.1195 27.7373 77.4937 28.3596C76.8678 28.9819 76.019 29.3315 75.1339 29.3315Z" transform="translate(0.885429 47.2844)" fill="#F68B20"/>
<g opacity="0.1">
<path opacity="0.1" d="M14.2487 0.0663448C14.2487 0.0663448 -12.6078 -3.40366 7.42144 39.8469C7.42144 39.8469 25.6744 32.0641 26.4013 14.5094C26.5492 11.093 25.4325 7.74144 23.2628 5.0896C21.0932 2.43775 18.0214 0.669858 14.6294 0.120928L14.2487 0.0663448Z" transform="translate(247.363 199.182)" fill="#F68B20"/>
<path opacity="0.1" d="M7.20105 -8.33009e-07C7.20105 -8.33009e-07 13.2808 24.116 -8.37176e-07 39.8488" transform="translate(254.805 199.183)" stroke="#535461" stroke-miterlimit="10"/>
<path opacity="0.1" d="M0 60.6825C0 60.6825 9.66998 36.9691 27.7275 28.1729C35.331 24.5316 41.5413 18.533 45.4249 11.0788C47.2398 7.52834 48.7239 3.81992 49.8587 9.9961e-06" transform="translate(254.441 180.578)" stroke="#535461" stroke-width="2" stroke-miterlimit="10"/>
<path opacity="0.1" d="M11.6246 9.1003C9.74199 11.4546 -1.17205e-05 14.9007 -1.17205e-05 14.9007C-1.17205e-05 14.9007 1.17274 4.6647 3.0553 2.32748C3.48474 1.71736 4.03512 1.20114 4.67256 0.810588C5.31 0.420035 6.02105 0.163405 6.7619 0.0565065C7.50275 -0.0503924 8.25774 -0.00529981 8.98042 0.188997C9.7031 0.383293 10.3782 0.722687 10.9641 1.1863C11.55 1.6499 12.0344 2.22791 12.3874 2.88476C12.7405 3.5416 12.9546 4.26339 13.0168 5.00568C13.079 5.74798 12.9879 6.49508 12.749 7.20101C12.5102 7.90695 12.1287 8.5568 11.628 9.11054L11.6246 9.1003Z" transform="translate(304.022 165.871)" fill="#F68B20"/>
<path opacity="0.1" d="M12.9207 10.7359C10.054 11.6947 2.00922e-05 9.3097 2.00922e-05 9.3097C2.00922e-05 9.3097 6.56666 1.36655 9.43336 0.407776C10.1277 0.124605 10.8732 -0.0138137 11.6235 0.00107983C12.3737 0.0159733 13.113 0.183865 13.7955 0.494367C14.4779 0.804869 15.0891 1.25138 15.5913 1.80629C16.0934 2.36121 16.4758 3.01272 16.7148 3.72055C16.9538 4.42837 17.0444 5.17746 16.9808 5.92148C16.9173 6.66551 16.701 7.38865 16.3454 8.0462C15.9898 8.70374 15.5024 9.28171 14.9133 9.74435C14.3243 10.207 13.6461 10.5445 12.9207 10.7359Z" transform="translate(299.383 182.882)" fill="#F68B20"/>
<path opacity="0.1" d="M10.4312 10.7398C7.47195 10.1291 7.53458e-06 3.01846 7.53458e-06 3.01846C7.53458e-06 3.01846 9.69742 -0.540247 12.6601 0.0705019C14.0008 0.442286 15.1493 1.30711 15.8731 2.48985C16.597 3.6726 16.8421 5.08485 16.5587 6.44064C16.2754 7.79644 15.4849 8.99443 14.3472 9.79203C13.2095 10.5896 11.8097 10.9272 10.4312 10.7364V10.7398Z" transform="translate(283.746 204.924)" fill="#F68B20"/>
<path opacity="0.1" d="M11.5937 10.8928C8.57268 10.7871 2.51153e-06 5.03784 2.51153e-06 5.03784C2.51153e-06 5.03784 8.95674 -0.107468 11.9778 0.00171592C13.3628 0.141947 14.6424 0.800823 15.5574 1.84485C16.4724 2.88888 16.9543 4.23997 16.9055 5.62436C16.8566 7.00875 16.2807 8.3229 15.2944 9.30053C14.3081 10.2782 12.9852 10.8461 11.5937 10.8894V10.8928Z" transform="translate(265.095 218.377)" fill="#F68B20"/>
<path opacity="0.1" d="M0.102351 6.50875C0.489836 9.49425 7.03593 17.451 7.03593 17.451C7.03593 17.451 11.3463 8.10215 10.9622 5.11665C10.9151 4.37118 10.7148 3.64326 10.3736 2.97794C10.0324 2.31261 9.55762 1.72403 8.97864 1.24861C8.39965 0.773192 7.7288 0.421046 7.00755 0.213973C6.2863 0.00690018 5.52999 -0.0506906 4.78547 0.0447474C4.04095 0.140185 3.32405 0.386637 2.6791 0.76884C2.03414 1.15104 1.47489 1.66087 1.03591 2.26678C0.596929 2.87269 0.287562 3.56178 0.126985 4.29143C-0.0335916 5.02107 -0.0419673 5.77575 0.102351 6.50875Z" transform="translate(289.919 179.006)" fill="#F68B20"/>
<path opacity="0.1" d="M0.662233 8.05585C1.92756 10.7855 10.5688 16.4323 10.5688 16.4323C10.5688 16.4323 11.8719 6.22702 10.6065 3.49742C10.3369 2.80077 9.92661 2.16654 9.40091 1.63394C8.87521 1.10133 8.2453 0.681661 7.55014 0.400876C6.85498 0.120092 6.10934 -0.01584 5.35929 0.00146957C4.60924 0.0187791 3.87074 0.188974 3.18942 0.501525C2.50809 0.814076 1.89843 1.26233 1.39811 1.81862C0.897792 2.3749 0.517441 3.02739 0.280585 3.73572C0.0437288 4.44406 -0.0446019 5.19319 0.0210395 5.93684C0.086681 6.6805 0.304911 7.40286 0.662233 8.05927V8.05585Z" transform="translate(269.107 193.646)" fill="#F68B20"/>
<path opacity="0.1" d="M0.293104 7.21968C1.07493 10.1267 8.63604 17.1418 8.63604 17.1418C8.63604 17.1418 11.6536 7.30497 10.8684 4.39794C10.7224 3.6648 10.4266 2.9693 9.99941 2.35453C9.57223 1.73976 9.02272 1.21882 8.38495 0.823982C7.74718 0.42914 7.03473 0.168803 6.29172 0.0591138C5.54871 -0.0505755 4.79097 -0.0072897 4.06546 0.186293C3.33995 0.379877 2.66213 0.719631 2.07397 1.18451C1.4858 1.64939 0.999841 2.22949 0.646183 2.88887C0.292524 3.54824 0.0786981 4.27285 0.0179659 5.01781C-0.0427663 5.76276 0.0508773 6.5122 0.293104 7.21968Z" transform="translate(251.96 212.886)" fill="#F68B20"/>
<path opacity="0.25" d="M11.6246 9.1003C9.74199 11.4546 -1.17205e-05 14.9007 -1.17205e-05 14.9007C-1.17205e-05 14.9007 1.17274 4.6647 3.0553 2.32748C3.48474 1.71736 4.03512 1.20114 4.67256 0.810588C5.31 0.420035 6.02105 0.163405 6.7619 0.0565065C7.50275 -0.0503924 8.25774 -0.00529981 8.98042 0.188997C9.7031 0.383293 10.3782 0.722687 10.9641 1.1863C11.55 1.6499 12.0344 2.22791 12.3874 2.88476C12.7405 3.5416 12.9546 4.26339 13.0168 5.00568C13.079 5.74798 12.9879 6.49508 12.749 7.20101C12.5102 7.90695 12.1287 8.5568 11.628 9.11054L11.6246 9.1003Z" transform="translate(304.022 165.871)" fill="black"/>
<path opacity="0.25" d="M12.9207 10.7359C10.054 11.6947 2.00922e-05 9.3097 2.00922e-05 9.3097C2.00922e-05 9.3097 6.56666 1.36655 9.43336 0.407776C10.1277 0.124605 10.8732 -0.0138137 11.6235 0.00107983C12.3737 0.0159733 13.113 0.183865 13.7955 0.494367C14.4779 0.804869 15.0891 1.25138 15.5913 1.80629C16.0934 2.36121 16.4758 3.01272 16.7148 3.72055C16.9538 4.42837 17.0444 5.17746 16.9808 5.92148C16.9173 6.66551 16.701 7.38865 16.3454 8.0462C15.9898 8.70374 15.5024 9.28171 14.9133 9.74435C14.3243 10.207 13.6461 10.5445 12.9207 10.7359Z" transform="translate(299.383 182.882)" fill="black"/>
<path opacity="0.25" d="M10.4312 10.7398C7.47195 10.1291 7.53458e-06 3.01846 7.53458e-06 3.01846C7.53458e-06 3.01846 9.69742 -0.540247 12.6601 0.0705019C14.0008 0.442286 15.1493 1.30711 15.8731 2.48985C16.597 3.6726 16.8421 5.08485 16.5587 6.44064C16.2754 7.79644 15.4849 8.99443 14.3472 9.79203C13.2095 10.5896 11.8097 10.9272 10.4312 10.7364V10.7398Z" transform="translate(283.746 204.924)" fill="black"/>
<path opacity="0.25" d="M11.5937 10.8928C8.57268 10.7871 2.51153e-06 5.03784 2.51153e-06 5.03784C2.51153e-06 5.03784 8.95674 -0.107468 11.9778 0.00171592C13.3628 0.141947 14.6424 0.800823 15.5574 1.84485C16.4724 2.88888 16.9543 4.23997 16.9055 5.62436C16.8566 7.00875 16.2807 8.3229 15.2944 9.30053C14.3081 10.2782 12.9852 10.8461 11.5937 10.8894V10.8928Z" transform="translate(265.095 218.377)" fill="black"/>
<path opacity="0.25" d="M0.102351 6.50875C0.489836 9.49425 7.03593 17.451 7.03593 17.451C7.03593 17.451 11.3463 8.10215 10.9622 5.11665C10.9151 4.37118 10.7148 3.64326 10.3736 2.97794C10.0324 2.31261 9.55762 1.72403 8.97864 1.24861C8.39965 0.773192 7.7288 0.421046 7.00755 0.213973C6.2863 0.00690018 5.52999 -0.0506906 4.78547 0.0447474C4.04095 0.140185 3.32405 0.386637 2.6791 0.76884C2.03414 1.15104 1.47489 1.66087 1.03591 2.26678C0.596929 2.87269 0.287562 3.56178 0.126985 4.29143C-0.0335916 5.02107 -0.0419673 5.77575 0.102351 6.50875Z" transform="translate(289.919 179.006)" fill="black"/>
<path opacity="0.25" d="M0.662233 8.05585C1.92756 10.7855 10.5688 16.4323 10.5688 16.4323C10.5688 16.4323 11.8719 6.22702 10.6065 3.49742C10.3369 2.80077 9.92661 2.16654 9.40091 1.63394C8.87521 1.10133 8.2453 0.681661 7.55014 0.400876C6.85498 0.120092 6.10934 -0.01584 5.35929 0.00146957C4.60924 0.0187791 3.87074 0.188974 3.18942 0.501525C2.50809 0.814076 1.89843 1.26233 1.39811 1.81862C0.897792 2.3749 0.517441 3.02739 0.280585 3.73572C0.0437288 4.44406 -0.0446019 5.19319 0.0210395 5.93684C0.086681 6.6805 0.304911 7.40286 0.662233 8.05927V8.05585Z" transform="translate(269.107 193.646)" fill="black"/>
<path opacity="0.25" d="M0.293104 7.21968C1.07493 10.1267 8.63604 17.1418 8.63604 17.1418C8.63604 17.1418 11.6536 7.30497 10.8684 4.39794C10.7224 3.6648 10.4266 2.9693 9.99941 2.35453C9.57223 1.73976 9.02272 1.21882 8.38495 0.823982C7.74718 0.42914 7.03473 0.168803 6.29172 0.0591138C5.54871 -0.0505755 4.79097 -0.0072897 4.06546 0.186293C3.33995 0.379877 2.66213 0.719631 2.07397 1.18451C1.4858 1.64939 0.999841 2.22949 0.646183 2.88887C0.292524 3.54824 0.0786981 4.27285 0.0179659 5.01781C-0.0427663 5.76276 0.0508773 6.5122 0.293104 7.21968Z" transform="translate(251.96 212.886)" fill="black"/>
<path opacity="0.1" d="M-8.37176e-07 60.6859C-8.37176e-07 60.6859 9.67 36.9725 27.7275 28.1763C35.3277 24.5323 41.5342 18.5326 45.4146 11.0788C47.2295 7.52833 48.7137 3.81992 49.8484 4.99805e-06" transform="translate(267.321 191.363)" stroke="#535461" stroke-width="2" stroke-miterlimit="10"/>
<path opacity="0.1" d="M11.6246 8.58072C9.742 10.935 -8.37176e-06 14.3811 -8.37176e-06 14.3811C-8.37176e-06 14.3811 1.17275 4.1451 3.05531 1.80788C3.98992 0.774235 5.28569 0.134395 6.67823 0.0188858C8.07076 -0.0966231 9.45511 0.320912 10.5488 1.18631C11.6425 2.0517 12.3632 3.29974 12.5637 4.67576C12.7643 6.05178 12.4296 7.45206 11.628 8.59094L11.6246 8.58072Z" transform="translate(316.885 177.173)" fill="#F68B20"/>
<path opacity="0.1" d="M12.9208 10.5106C10.054 11.4694 -1.17205e-05 9.08442 -1.17205e-05 9.08442C-1.17205e-05 9.08442 6.56667 1.14128 9.43337 0.18251C10.7804 -0.173023 12.2129 -0.00520862 13.4401 0.65189C14.6672 1.30899 15.5971 2.40613 16.041 3.72057C16.4848 5.03501 16.4093 6.46825 15.8298 7.72932C15.2503 8.99039 14.2102 9.98478 12.9208 10.5106Z" transform="translate(312.252 193.89)" fill="#F68B20"/>
<path opacity="0.1" d="M10.4313 10.7398C7.47196 10.1291 -3.3487e-06 3.01846 -3.3487e-06 3.01846C-3.3487e-06 3.01846 9.69743 -0.540263 12.6601 0.0704861C14.0008 0.44227 15.1493 1.30711 15.8731 2.48986C16.597 3.6726 16.8421 5.08486 16.5588 6.44065C16.2754 7.79644 15.4849 8.99444 14.3472 9.79203C13.2095 10.5896 11.8097 10.9272 10.4313 10.7364V10.7398Z" transform="translate(296.615 215.719)" fill="#F68B20"/>
<path opacity="0.1" d="M11.5937 10.8893C8.57269 10.7835 9.20894e-06 5.03431 9.20894e-06 5.03431C9.20894e-06 5.03431 8.95675 -0.104167 11.9778 0.00160498C13.3628 0.141836 14.6424 0.800733 15.5574 1.84476C16.4724 2.88879 16.9543 4.23988 16.9055 5.62427C16.8566 7.00866 16.2807 8.32281 15.2944 9.30044C14.3081 10.2781 12.9852 10.8461 11.5937 10.8893Z" transform="translate(277.961 229.16)" fill="#F68B20"/>
<path opacity="0.1" d="M0.102358 6.50875C0.489843 9.49426 7.03593 17.4511 7.03593 17.4511C7.03593 17.4511 11.3463 8.10215 10.9622 5.11665C10.9151 4.37119 10.7148 3.64327 10.3736 2.97794C10.0324 2.31262 9.55762 1.72404 8.97864 1.24862C8.39966 0.773197 7.7288 0.421051 7.00755 0.213978C6.2863 0.00690519 5.53 -0.0506856 4.78548 0.0447524C4.04096 0.14019 3.32406 0.386622 2.6791 0.768824C2.03415 1.15103 1.47487 1.66087 1.03589 2.26678C0.596914 2.87269 0.287589 3.56178 0.127013 4.29143C-0.033564 5.02108 -0.0419606 5.77575 0.102358 6.50875Z" transform="translate(302.785 189.802)" fill="#F68B20"/>
<path opacity="0.1" d="M0.366487 7.41759C1.63182 10.1472 10.2731 15.7941 10.2731 15.7941C10.2731 15.7941 11.5761 5.58876 10.3108 2.85916C9.64689 1.63953 8.54131 0.717097 7.21863 0.279204C5.89594 -0.158689 4.45534 -0.0792136 3.18942 0.501513C1.92351 1.08224 0.927197 2.12065 0.402883 3.40584C-0.12143 4.69102 -0.134445 6.12662 0.366487 7.421V7.41759Z" transform="translate(282.272 205.052)" fill="#F68B20"/>
<path opacity="0.1" d="M0.104692 6.52047C0.886521 9.4275 8.44761 16.4426 8.44761 16.4426C8.44761 16.4426 11.4652 6.60577 10.6799 3.69874C10.231 2.38753 9.29792 1.29517 8.06973 0.642971C6.84155 -0.00922537 5.41011 -0.172486 4.06548 0.186295C2.72084 0.545076 1.56357 1.39906 0.828117 2.5752C0.0926687 3.75134 -0.165937 5.16168 0.104692 6.52047Z" transform="translate(265.018 224.374)" fill="#F68B20"/>
</g>
<path fill-rule="evenodd" clip-rule="evenodd" d="M129.324 0.614258C138.39 2.10583 146.987 5.72986 154.39 11.2062C155.846 12.2889 157.284 13.4556 158.727 14.6268C164.083 18.9731 169.517 23.3834 176.294 23.8135C177.054 23.8622 177.819 23.8574 178.583 23.8527C179.909 23.8445 181.233 23.8364 182.525 24.1069C187.789 25.2124 190.95 30.5249 192.469 35.5815C193.659 39.5667 194.237 43.7078 194.184 47.8647C194.31 56.5403 191.77 65.0471 186.904 72.2469C186.577 72.7251 186.238 73.2015 185.898 73.6794C184.213 76.0488 182.503 78.4534 182.103 81.2784C182.059 81.6027 182.021 81.9199 182.021 82.2611C182.055 83.1162 182.158 83.9741 182.26 84.8306C182.406 86.0522 182.552 87.271 182.498 88.4744C182.551 89.4281 182.464 90.3844 182.24 91.3132C181.541 94.0121 179.381 96.09 177.323 98.0042C170.154 104.635 162.831 111.095 155.353 117.384C155.325 117.298 155.301 117.212 155.277 117.127C155.259 117.065 155.242 117.003 155.223 116.941C151.772 120.262 147.872 123.088 143.636 125.338C143.684 126.024 143.739 126.689 143.801 127.334L143.711 127.378C143.731 127.617 143.752 127.846 143.774 128.08L143.801 128.374C144.007 130.555 144.351 132.72 144.829 134.857C145.837 134.724 152.071 134.523 162.448 145.301C163.916 146.863 165.227 148.565 166.36 150.382C173.952 152.48 200.651 160.215 225.34 171.69C230.745 174.2 235.674 179.114 240.116 185.454C221.126 231.731 177.081 265.077 124.858 268.615H106.408C61.1192 265.547 21.9805 240.061 0 203.163C7.37221 178.911 28.4842 174.474 28.4842 174.474L70.0583 155.708L86.2298 140.917C86.2881 134.004 86.0824 127.661 85.8218 122.605C85.7623 121.438 85.7006 120.344 85.6366 119.322C74.5813 110.083 67.5722 96.3528 67.5722 81.0192C67.5711 77.9772 67.85 74.9414 68.4055 71.9501L66.7493 73.4036C65.7788 72.3424 65.5079 71.0391 65.6108 69.6504C65.4417 67.5785 66.3763 65.2079 67.2135 63.0842C67.2932 62.8822 67.3719 62.6824 67.4488 62.4852C69.0913 58.2714 69.6297 53.7743 69.6674 49.291C69.656 48.9133 69.6503 48.5369 69.6503 48.1616C69.5957 46.2191 69.2478 44.2811 68.9017 42.3533C68.5079 40.1598 68.1164 37.9795 68.162 35.8203V35.6703V34.7797C68.3335 26.7512 74.8316 18.9377 82.4887 16.5153C84.7476 15.802 87.1137 15.4697 89.4747 15.1382C92.4899 14.7148 95.497 14.2926 98.2624 13.0793C101.39 11.7146 103.975 9.43311 106.553 7.15833C109.472 4.58179 112.382 2.01392 116.059 0.796143C117.38 0.357788 118.748 0.11145 120.137 0C123.226 0.101685 126.29 0.307617 129.324 0.614258ZM147.603 142.459C147.013 140.13 146.185 137.866 145.134 135.703L144.99 135.427L144.939 135.335C145.494 137.82 146.39 140.218 147.603 142.459ZM86.1818 144.496C86.2047 143.834 86.2161 143.178 86.2161 142.527V142.51C86.1329 143.208 86.094 143.91 86.0995 144.612L86.1818 144.496Z" transform="translate(12.8669 73.074)" fill="url(#paint0_linear)"/>
<path d="M80.9105 63.0051L74.0524 128.174L37.3613 139.775C37.3613 139.775 -10.3028 130.904 2.04184 105.314C10.8237 87.1109 10.5802 54.5808 9.70924 37.3161C9.36633 30.3078 8.89998 25.8142 8.89998 25.8142C8.89998 25.8142 71.3091 -28.4366 66.1655 20.355C65.1711 29.8029 65.1128 37.1898 65.6648 42.963C67.9795 66.9971 80.9105 63.0051 80.9105 63.0051Z" transform="translate(90.6528 160.966)" fill="#FDC2CC"/>
<path opacity="0.03" d="M80.9105 63.0051L74.0524 128.174L37.3613 139.775C37.3613 139.775 -10.3028 130.904 2.04184 105.314C10.8237 87.1109 10.5802 54.5808 9.70924 37.3161C9.36633 30.3078 8.89998 25.8142 8.89998 25.8142C8.89998 25.8142 71.3091 -28.4366 66.1655 20.355C65.1711 29.8029 65.1128 37.1898 65.6648 42.963C67.9795 66.9971 80.9105 63.0051 80.9105 63.0051Z" transform="translate(90.6528 160.966)" fill="black"/>
<path opacity="0.1" d="M57.2655 20.355C56.2711 29.8028 56.2128 37.1898 56.7649 42.9629C47.9544 47.7491 37.8948 49.771 27.9081 48.7632C17.9213 47.7554 8.47458 43.7649 0.809256 37.3161C0.466349 30.3078 0 25.8142 0 25.8142C0 25.8142 62.4091 -28.4366 57.2655 20.355Z" transform="translate(99.5527 159.942)" fill="black"/>
<path d="M49.7216 98.9481C77.182 98.9481 99.4431 76.7978 99.4431 49.4741C99.4431 22.1503 77.182 0 49.7216 0C22.2611 0 -4.18588e-06 22.1503 -4.18588e-06 49.4741C-4.18588e-06 76.7978 22.2611 98.9481 49.7216 98.9481Z" transform="translate(82.7504 107.966)" fill="#FDC2CC"/>
<path opacity="0.03" d="M49.7216 98.9481C77.182 98.9481 99.4431 76.7978 99.4431 49.4741C99.4431 22.1503 77.182 0 49.7216 0C22.2611 0 -4.18588e-06 22.1503 -4.18588e-06 49.4741C-4.18588e-06 76.7978 22.2611 98.9481 49.7216 98.9481Z" transform="translate(82.7504 107.966)" fill="black"/>
<path fill-rule="evenodd" clip-rule="evenodd" d="M42.2443 143.418C27.1178 140.58 12.8842 135.21 0 127.765L17.6754 87.7505C17.6754 87.7505 24.8766 74.1025 26.5912 60.4545C27.6815 51.7778 31.8204 39.9279 34.6906 32.4453C36.5641 27.5535 39.3207 23.0437 42.8243 19.1385C49.6742 11.5107 61.681 -0.426825 69.3329 0.011751C70.2306 -0.0192473 71.0758 0.10306 71.8549 0.403116C82.485 4.49752 62.5963 19.8515 62.5963 19.8515C62.5963 19.8515 91.7435 31.1112 71.8549 64.5488C55.6376 91.814 52.4159 92.7636 51.7792 92.1851C51.6935 92.2218 51.6166 92.2468 51.5475 92.2621L42.2443 143.418Z" transform="translate(61.3029 196.272)" fill="#FDC2CC"/>
<path opacity="0.15" d="M1.02872 2.0472C1.59687 2.0472 2.05744 1.58892 2.05744 1.0236C2.05744 0.458281 1.59687 0 1.02872 0C0.46057 0 -4.18588e-06 0.458281 -4.18588e-06 1.0236C-4.18588e-06 1.58892 0.46057 2.0472 1.02872 2.0472Z" transform="translate(146.703 128.609)" fill="white"/>
<path opacity="0.15" d="M1.02872 2.0472C1.59687 2.0472 2.05744 1.58892 2.05744 1.0236C2.05744 0.458281 1.59687 0 1.02872 0C0.46057 0 -4.18588e-06 0.458281 -4.18588e-06 1.0236C-4.18588e-06 1.58892 0.46057 2.0472 1.02872 2.0472Z" transform="translate(141.902 130.656)" fill="white"/>
<path opacity="0.1" d="M16.315 16.2992C21.2768 14.7024 26.7839 15.047 31.5435 12.9248C37.9799 10.0519 42.0364 3.0982 48.7163 0.846274C51.6927 -0.156855 54.9229 -0.119323 58.0468 0.201406C68.0922 1.24167 77.6586 5.00271 85.7057 11.0755C92.3272 16.0877 98.5407 22.9219 106.842 23.4576C108.848 23.5873 110.889 23.3246 112.854 23.7442C117.942 24.8293 120.991 30.0462 122.455 35.0038C124.149 40.8792 124.546 47.0496 123.619 53.092C122.692 59.1344 120.463 64.9059 117.085 70.011C115.206 72.8089 112.915 75.5487 112.452 78.8822C112 82.1509 113.399 85.539 112.583 88.7395C111.897 91.3906 109.84 93.431 107.837 95.311C100.922 101.819 93.8543 108.159 86.635 114.333C82.8836 102.473 88.3872 89.7017 87.53 77.299C87.187 72.4676 85.4725 67.1927 81.1896 64.9135C77.181 62.7844 72.058 63.8899 68.0014 61.8427C63.475 59.5737 61.6165 54.1998 58.1942 50.4807C52.3648 44.1344 42.2456 43.3155 34.0947 46.1816C25.9438 49.0477 19.2811 54.9436 12.8345 60.6928L1.11733 71.1506C-1.16986 68.5848 0.565249 64.6473 1.80314 61.4401C3.64799 56.6325 4.05261 51.4497 3.92916 46.3453C3.82972 42.2509 2.41008 38.2077 2.49238 34.2225C2.65698 26.3612 8.92532 18.6774 16.315 16.2992Z" transform="translate(80.8342 78.7935)" fill="black"/>
<path d="M16.315 16.2992C21.2768 14.7024 26.7839 15.047 31.5435 12.9248C37.9799 10.0519 42.0364 3.0982 48.7163 0.846274C51.6927 -0.156855 54.9229 -0.119323 58.0468 0.201406C68.0922 1.24167 77.6586 5.00271 85.7057 11.0755C92.3272 16.0877 98.5407 22.9219 106.842 23.4576C108.848 23.5873 110.889 23.3246 112.854 23.7442C117.942 24.8293 120.991 30.0462 122.455 35.0038C124.149 40.8792 124.546 47.0496 123.619 53.092C122.692 59.1344 120.463 64.9059 117.085 70.011C115.206 72.8089 112.915 75.5487 112.452 78.8822C112 82.1509 113.399 85.539 112.583 88.7395C111.897 91.3906 109.84 93.431 107.837 95.311C100.922 101.819 93.8543 108.159 86.635 114.333C82.8836 102.473 88.3872 89.7017 87.53 77.299C87.187 72.4676 85.4725 67.1927 81.1896 64.9135C77.181 62.7844 72.058 63.8899 68.0014 61.8427C63.475 59.5737 61.6165 54.1998 58.1942 50.4807C52.3648 44.1344 42.2456 43.3155 34.0947 46.1816C25.9438 49.0477 19.2811 54.9436 12.8345 60.6928L1.11733 71.1506C-1.16986 68.5848 0.565249 64.6473 1.80314 61.4401C3.64799 56.6325 4.05261 51.4497 3.92916 46.3453C3.82972 42.2509 2.41008 38.2077 2.49238 34.2225C2.65698 26.3612 8.92532 18.6774 16.315 16.2992Z" transform="translate(80.8342 77.7699)" fill="#865A61"/>
<defs>
<linearGradient id="paint0_linear" x2="1" gradientUnits="userSpaceOnUse" gradientTransform="translate(-1.48579 268.782) scale(270.218 268.873) rotate(-90)">
<stop stop-color="#808080" stop-opacity="0.25"/>
<stop offset="0.54" stop-color="#808080" stop-opacity="0.12"/>
<stop offset="1" stop-color="#808080" stop-opacity="0.1"/>
</linearGradient>
</defs>
</svg>
