<svg width="1236" height="256" viewBox="0 0 1236 256" fill="none" xmlns="http://www.w3.org/2000/svg">
<path d="M31.968 126.896H69.856V109.136H31.968V86.048H71.336V67.4H11.248V171H31.968V126.896ZM108.944 144.36V102.92H88.9642V146.432C88.9642 163.896 96.9562 172.48 112.94 172.48C122.264 172.48 129.22 168.484 133.66 160.492V171H152.9V102.92H133.66V144.36C133.66 148.652 132.328 152.056 129.96 154.572C127.444 157.088 124.188 158.272 120.192 158.272C112.644 158.272 108.944 153.684 108.944 144.36ZM177.553 145.84L165.713 155.608C172.817 167.596 183.029 173.516 196.349 173.516C204.637 173.516 211.297 171.74 216.181 168.188C221.065 164.636 223.581 159.16 223.581 151.76C223.581 146.728 221.805 142.584 218.549 139.476C215.293 136.368 210.705 133.704 204.933 131.336L200.049 129.56C197.829 128.82 196.201 128.228 195.017 127.784C193.833 127.34 192.649 126.748 191.317 126.008C189.985 125.416 189.097 124.676 188.505 123.788C187.913 123.048 187.617 122.16 187.617 121.124C187.617 117.72 189.985 115.944 194.869 115.944C197.533 115.944 200.641 116.832 203.897 118.608C207.153 120.384 209.817 122.456 212.037 125.12L222.989 115.648C220.325 111.504 216.477 108.1 211.445 105.436C206.413 102.772 200.789 101.44 194.573 101.44C187.469 101.44 181.549 103.216 176.813 106.62C172.077 110.024 169.709 114.76 169.709 120.68C169.709 126.008 171.189 130.152 174.149 133.112C177.109 136.072 181.253 138.736 186.877 141.104C187.913 141.696 189.541 142.288 191.613 143.028C193.685 143.916 195.313 144.508 196.497 144.952C197.681 145.544 198.865 146.136 200.197 146.876C201.529 147.616 202.565 148.504 203.157 149.392C203.749 150.28 204.193 151.316 204.193 152.352C204.193 156.2 201.381 158.124 196.053 158.124C192.945 158.124 189.689 157.088 186.433 154.868C183.029 152.796 180.069 149.688 177.553 145.84ZM236.076 76.576C236.076 79.684 237.112 82.348 239.332 84.42C241.552 86.492 244.364 87.528 247.62 87.528C250.876 87.528 253.54 86.492 255.76 84.42C257.98 82.348 259.164 79.684 259.164 76.576C259.164 73.616 257.98 70.952 255.76 68.88C253.54 66.808 250.876 65.624 247.62 65.624C244.364 65.624 241.552 66.808 239.332 68.88C237.112 70.952 236.076 73.616 236.076 76.576ZM238.148 102.92V171H256.796V102.92H238.148ZM272.556 136.96C272.556 147.616 276.108 156.2 283.212 162.712C290.316 169.224 299.344 172.48 310.296 172.48C321.248 172.48 330.276 169.224 337.38 162.712C344.484 156.2 348.184 147.616 348.184 136.96C348.184 126.452 344.484 117.868 337.38 111.356C330.276 104.844 321.248 101.44 310.296 101.44C299.344 101.44 290.316 104.844 283.212 111.356C276.108 117.868 272.556 126.452 272.556 136.96ZM292.24 136.96C292.24 131.336 293.868 126.6 297.42 123.048C300.824 119.496 305.116 117.72 310.296 117.72C315.328 117.72 319.62 119.496 323.172 123.048C326.576 126.6 328.352 131.336 328.352 136.96C328.352 142.732 326.576 147.32 323.172 150.872C319.62 154.424 315.328 156.2 310.296 156.2C305.116 156.2 300.824 154.424 297.42 150.872C293.868 147.32 292.24 142.732 292.24 136.96ZM406.521 129.56V171H426.353V127.488C426.353 110.172 418.361 101.44 402.377 101.44C392.905 101.44 386.097 105.436 381.805 113.28V102.92H362.417V171H381.805V129.56C381.805 125.416 382.989 122.012 385.505 119.496C387.873 116.98 391.129 115.648 395.273 115.648C402.673 115.648 406.521 120.384 406.521 129.56Z" transform="translate(263)" fill="#404040"/>
<path d="M28.0716 139.92H69.8076L82.9796 171H97.0396L48.9396 62.22L0.839609 171H14.8996L28.0716 139.92ZM33.1036 128.08L48.9396 90.784L64.7756 128.08H33.1036ZM108.903 55.56V171H120.743V55.56H108.903ZM143.012 55.56V171H154.852V55.56H143.012ZM179.341 102.92V171H191.181V102.92H179.341ZM177.121 74.8C177.121 77.02 177.861 78.944 179.489 80.572C181.117 82.2 183.041 82.94 185.261 82.94C187.333 82.94 189.257 82.2 190.885 80.572C192.513 78.944 193.401 77.02 193.401 74.8C193.401 72.728 192.513 70.804 190.885 69.176C189.257 67.548 187.333 66.66 185.261 66.66C183.041 66.66 181.117 67.548 179.489 69.176C177.861 70.804 177.121 72.728 177.121 74.8ZM220.895 118.904C227.407 114.168 234.067 111.8 241.171 111.8C245.019 111.8 248.423 112.836 251.235 114.612C254.047 116.388 255.527 118.904 255.527 122.16V133.556C250.495 130.3 244.723 128.672 237.915 128.672C229.331 128.672 222.227 130.744 216.899 134.888C211.571 139.032 208.907 144.952 208.907 152.5C208.907 158.716 210.979 163.6 215.271 167.152C219.415 170.704 225.187 172.48 232.291 172.48C237.471 172.48 242.059 171.592 246.203 169.52C250.347 167.596 253.455 164.784 255.527 161.232V171H267.367V122.16C267.367 115.648 264.851 110.616 260.115 106.916C255.379 103.364 249.015 101.44 241.171 101.44C231.403 101.44 222.819 104.252 215.123 109.876L220.895 118.904ZM220.895 151.02C220.895 142.14 226.667 137.7 238.507 137.7C244.723 137.7 250.347 139.032 255.527 141.696V144.36C255.527 156.2 248.719 161.972 235.251 161.972C225.631 161.972 220.895 158.42 220.895 151.02ZM331.059 129.56V171H342.899V128.08C342.899 119.496 340.679 112.984 336.535 108.396C332.391 103.808 326.619 101.44 319.515 101.44C310.487 101.44 303.679 105.584 299.239 113.724V102.92H287.399V171H299.239V129.56C299.239 124.676 300.719 120.68 303.975 117.424C307.231 114.168 311.375 112.54 316.555 112.54C326.175 112.54 331.059 118.312 331.059 129.56ZM370.485 136.96C370.485 129.856 372.557 124.084 376.997 119.496C381.437 114.908 386.913 112.54 393.721 112.54C399.049 112.54 403.933 113.872 408.373 116.24C412.813 118.608 415.773 121.568 417.401 124.972V110.172C415.033 107.508 411.629 105.436 407.337 103.808C402.897 102.328 398.457 101.44 393.721 101.44C383.657 101.44 375.221 104.844 368.561 111.504C361.753 118.312 358.497 126.748 358.497 136.96C358.497 147.32 361.753 155.756 368.561 162.416C375.221 169.224 383.657 172.48 393.721 172.48C398.457 172.48 403.045 171.74 407.485 170.26C411.777 168.78 415.033 166.56 417.401 163.748V148.948C415.773 152.5 412.813 155.46 408.373 157.828C403.933 160.196 399.049 161.38 393.721 161.38C386.913 161.38 381.437 159.16 376.997 154.572C372.557 149.984 370.485 144.064 370.485 136.96ZM429.912 136.96C429.912 147.32 432.872 155.756 439.088 162.416C445.156 169.224 452.852 172.48 462.176 172.48C470.316 172.48 476.828 171.148 481.712 168.188C486.448 165.376 490.74 161.084 494.588 155.164L484.968 149.096C479.936 157.384 472.832 161.38 463.656 161.38C457.44 161.38 452.408 159.604 448.56 155.756C444.712 152.056 442.492 146.728 442.048 139.92H495.624C495.624 139.18 495.772 137.996 495.772 136.368C495.772 125.712 492.812 117.276 486.892 110.912C480.972 104.696 473.276 101.44 463.656 101.44C453.74 101.44 445.6 104.844 439.384 111.356C433.02 117.868 429.912 126.452 429.912 136.96ZM482.896 129.856H442.344C442.936 124.528 445.156 120.088 449.152 116.832C453.148 113.576 458.032 111.8 463.656 111.8C469.28 111.8 473.868 113.428 477.124 116.684C480.38 119.94 482.304 124.38 482.896 129.856Z" transform="translate(735)" fill="#404040"/>
<ellipse cx="39.8333" cy="39.8961" rx="39.8333" ry="39.8961" transform="translate(0 46.5455)" fill="#146DE1"/>
<ellipse cx="39.8333" cy="39.8961" rx="39.8333" ry="39.8961" transform="translate(0 132.156)" fill="#146DE1"/>
<ellipse cx="39.8333" cy="39.8961" rx="39.8333" ry="39.8961" transform="translate(159.333 132.156)" fill="#146DE1"/>
<ellipse cx="39.8333" cy="39.8961" rx="39.8333" ry="39.8961" transform="translate(159.333 46.5455)" fill="#146DE1"/>
<ellipse cx="39.8333" cy="39.8961" rx="39.8333" ry="39.8961" transform="translate(79.6666 176.208)" fill="#146DE1"/>
<ellipse cx="39.8333" cy="39.8961" rx="39.8333" ry="39.8961" transform="translate(79.6666)" fill="#146DE1"/>
<ellipse cx="39.8333" cy="39.8961" rx="39.8333" ry="39.8961" transform="translate(79.6666 88.1039)" fill="#404040"/>
</svg>
